<?xml version="1.0" encoding="UTF-8" standalone="no"?>
<svg
   xmlns:dc="http://purl.org/dc/elements/1.1/"
   xmlns:cc="http://creativecommons.org/ns#"
   xmlns:rdf="http://www.w3.org/1999/02/22-rdf-syntax-ns#"
   xmlns:svg="http://www.w3.org/2000/svg"
   xmlns="http://www.w3.org/2000/svg"
   width="200mm"
   height="200mm"
   viewBox="0 0 200 200"
   version="1.1"
   id="svg8">
  <defs
     id="defs2" />
  <metadata
     id="metadata5">
    <rdf:RDF>
      <cc:Work
         rdf:about="">
        <dc:format>image/svg+xml</dc:format>
        <dc:type
           rdf:resource="http://purl.org/dc/dcmitype/StillImage" />
        <dc:title></dc:title>
      </cc:Work>
    </rdf:RDF>
  </metadata>
  <g
     id="layer1">
    <path
       style="opacity:0.92;fill:#005400;fill-opacity:1;stroke:#b8db7c;stroke-width:0.150815;stroke-opacity:0"
       d="m 117.72968,112.12709 c -0.35443,-0.16889 -0.50418,-0.36958 -0.59737,-0.80068 -0.11331,-0.5244 -0.082,-0.66668 0.35471,-1.60729 0.26345,-0.56757 0.57985,-1.21504 0.7031,-1.4388 0.49512,-0.89884 1.29039,-2.64692 1.53601,-3.37631 0.14314,-0.42534 0.34595,-0.89205 0.45054,-1.03715 0.10451,-0.14508 0.36617,-0.76896 0.58136,-1.38638 0.21519,-0.61742 0.55356,-1.5631 0.7519,-2.1015 0.81487,-2.211889 1.59613,-5.162436 2.37492,-8.969083 0.81118,-3.967764 0.99806,-5.510297 0.83786,-6.936138 -0.0423,-0.377092 -0.0789,-0.921032 -0.0814,-1.208755 -0.002,-0.287737 -0.0416,-0.597097 -0.0874,-0.687505 -0.0457,-0.09039 -0.092,-0.36588 -0.10261,-0.612161 -0.055,-1.250257 -1.41678,-5.114494 -2.50253,-7.101071 -0.35455,-0.648751 -2.36397,-3.505134 -2.83555,-4.030756 -0.98634,-1.099366 -3.73371,-3.584506 -4.02056,-3.636816 -0.0507,-0.0092 -0.37621,-0.212049 -0.72368,-0.450729 -0.99094,-0.680704 -1.13064,-0.765446 -2.03165,-1.232502 -2.74969,-1.425347 -3.18319,-1.563657 -7.19171,-2.294621 -3.44986,-0.629088 -3.89549,-0.680671 -5.270002,-0.61005 -0.82583,0.04242 -1.64818,0.10606 -1.82746,0.141396 -0.17928,0.03533 -0.61325,0.09244 -0.96436,0.126898 -0.35113,0.03446 -1.097671,0.17164 -1.659013,0.304836 -0.561331,0.133201 -1.051993,0.236461 -1.090366,0.229462 -0.249504,-0.0455 -4.079822,1.367941 -5.011918,1.849465 -0.683491,0.353097 -4.104205,2.589499 -4.521426,2.95603 -0.259048,0.227585 -0.660797,0.566969 -0.892757,0.754189 -0.231965,0.187222 -0.435348,0.406578 -0.451954,0.487465 -0.01661,0.08088 -0.09109,0.158345 -0.165506,0.172136 -0.567907,0.105219 -4.140003,4.802905 -4.320465,5.681864 -0.02451,0.119438 -0.133195,0.317618 -0.241502,0.440399 -0.270986,0.30721 -1.438006,3.169704 -1.585855,3.889824 -0.0866,0.421733 -0.256057,0.691716 -0.60166,0.958527 -0.415984,0.32115 -0.580532,0.353316 -1.215331,0.23756 -0.606608,-0.110617 -0.78669,-0.214522 -1.036236,-0.597849 -0.166116,-0.255178 -0.290905,-0.529778 -0.277307,-0.610216 0.01365,-0.08045 -0.05318,-0.429099 -0.148388,-0.774794 -0.09522,-0.345689 -0.155894,-0.726123 -0.134851,-0.84541 0.02105,-0.119281 -0.02102,-0.407856 -0.09349,-0.641268 -0.07246,-0.233407 -0.137025,-0.645927 -0.143478,-0.916707 -0.0064,-0.270779 -0.0479,-0.601861 -0.09209,-0.735736 -0.113318,-0.343313 -0.210606,-2.715909 -0.127886,-3.118805 0.08838,-0.430449 1.040846,-2.309233 1.474558,-2.908624 1.352078,-1.868578 3.639175,-4.422172 4.883249,-5.452256 0.243725,-0.201802 0.506493,-0.423587 0.583926,-0.492853 1.48017,-1.324085 4.511076,-3.262516 6.79315,-4.344593 0.38115,-0.180731 0.770966,-0.36555 0.866248,-0.410718 0.601701,-0.285211 4.094931,-1.530977 4.225989,-1.507079 0.03143,0.0058 0.597233,-0.121996 1.257331,-0.28384 1.245029,-0.305254 2.253947,-0.481129 3.209428,-0.559447 0.30619,-0.02509 0.70431,-0.07911 0.88474,-0.119987 0.18041,-0.0409 0.93142,-0.09975 1.66889,-0.130778 4.920712,-0.207066 9.836752,0.689387 14.320362,2.61135 0.67195,0.288044 1.34546,0.606654 1.49666,0.708023 0.15122,0.101368 0.49979,0.288797 0.77461,0.416505 0.84348,0.391969 2.90774,1.722287 4.13002,2.661598 1.04852,0.80579 2.78556,2.300559 2.93667,2.527094 0.0328,0.0493 0.38922,0.433641 0.79189,0.854095 2.07432,2.165948 4.32857,5.634937 5.58585,8.595841 0.56367,1.327482 1.36605,3.866042 1.3093,4.142402 -0.0218,0.105389 0.0231,0.203004 0.0993,0.216926 0.0762,0.01391 0.14272,0.244287 0.14752,0.511933 0.004,0.267636 0.0466,0.560694 0.0929,0.651219 0.0463,0.09051 0.11237,0.438363 0.14689,0.772988 0.0345,0.334618 0.0951,0.748616 0.13461,0.919986 0.18885,0.819044 0.27543,2.865847 0.21949,5.188823 -0.0283,1.169279 -1.68535,9.180393 -2.36516,11.433344 -0.66097,2.190639 -1.57397,4.854959 -2.16029,6.304099 -0.27468,0.67891 -0.53676,1.41626 -0.58242,1.63858 -0.0457,0.22232 -0.15013,0.42864 -0.23224,0.45846 -0.0821,0.0298 -0.27366,0.41547 -0.42574,0.85699 -0.74943,2.17566 -2.71437,3.68535 -5.57385,4.28252 -1.26481,0.26412 -1.65881,0.26174 -2.23675,-0.0135 z"
       id="path839" />
    <path
       style="opacity:0.92;fill:#005400;fill-opacity:1;stroke:#b8db7c;stroke-width:0.150815;stroke-opacity:0"
       d="m 136.78476,102.32048 c -0.31087,-0.22532 -0.55982,-0.4856 -0.55321,-0.57844 0.006,-0.0929 0.65089,-3.343009 1.43187,-7.222626 0.90079,-4.475321 1.40871,-7.301402 1.38953,-7.730981 -0.0167,-0.37241 -0.0193,-1.111614 -0.005,-1.642672 0.0137,-0.531048 -0.0117,-1.106518 -0.0562,-1.278803 -0.0446,-0.172295 -0.0799,-0.716008 -0.0787,-1.208272 0.001,-0.492255 -0.0371,-0.969363 -0.085,-1.060217 -0.0481,-0.09087 -0.0905,-0.400801 -0.0941,-0.688773 -0.003,-0.28798 -0.044,-0.597554 -0.0898,-0.687964 -0.0457,-0.09039 -0.0914,-0.356508 -0.10157,-0.591335 -0.0446,-1.026482 -1.29393,-5.42999 -2.09861,-7.396812 -1.20796,-2.952404 -3.55103,-6.853178 -5.4607,-9.09093 -0.4082,-0.478331 -0.80367,-0.951434 -0.87882,-1.051342 -0.16103,-0.214023 -1.28635,-1.378195 -2.20729,-2.283475 -1.2733,-1.251643 -3.94953,-3.354864 -5.65558,-4.444639 -0.15208,-0.09715 -0.56556,-0.361112 -0.91885,-0.586603 -0.35329,-0.225489 -0.86035,-0.497938 -1.12677,-0.605445 -0.26645,-0.107504 -0.54388,-0.262195 -0.61654,-0.343748 -0.14067,-0.15791 -0.75062,-0.447528 -2.48801,-1.181351 -0.5936,-0.250726 -1.17279,-0.514638 -1.28705,-0.586472 -0.11427,-0.07184 -0.70271,-0.290655 -1.30763,-0.486269 -0.60491,-0.195617 -1.52772,-0.499635 -2.05066,-0.675603 -1.23095,-0.414199 -6.98471,-1.46341 -8.29075,-1.511834 -0.55484,-0.02056 -1.53137,-0.06291 -2.17006,-0.09406 -0.63869,-0.03116 -1.27125,-0.03499 -1.40572,-0.0085 -0.13445,0.02648 -0.776282,0.06775 -1.426272,0.09169 -1.90245,0.07009 -2.58301,0.124382 -2.77604,0.221439 -0.0998,0.05012 -0.418327,0.09611 -0.708074,0.102211 -0.289759,0.0062 -0.868053,0.08062 -1.285091,0.16564 -0.417039,0.08502 -0.904764,0.182635 -1.083822,0.216927 -1.768978,0.338763 -5.368491,1.439601 -7.008191,2.14331 -0.471615,0.202403 -1.112064,0.473048 -1.423224,0.601433 -1.515058,0.625118 -3.215343,1.57593 -5.540813,3.098464 -1.984496,1.299292 -2.144268,1.374509 -2.703241,1.27258 -0.756119,-0.13788 -1.257922,-0.674528 -1.252317,-1.339272 0.0055,-0.649855 1.137619,-4.528043 1.364626,-4.674573 0.09583,-0.06184 0.194935,-0.213318 0.220243,-0.336583 0.164365,-0.800557 1.962985,-2.217803 4.011191,-3.160675 0.569935,-0.262364 1.129585,-0.527162 1.243666,-0.588442 0.673075,-0.361543 3.374534,-1.404826 4.512598,-1.742731 0.481066,-0.142835 0.915229,-0.285884 0.964804,-0.317885 0.121873,-0.07867 2.700395,-0.745781 3.71604,-0.961412 0.449652,-0.09549 1.038435,-0.221116 1.308398,-0.279219 0.269963,-0.05812 0.960321,-0.164376 1.534139,-0.236152 0.573808,-0.07179 1.191207,-0.165449 1.372001,-0.208151 0.319285,-0.07541 1.228117,-0.149595 3.180997,-0.259638 1.678372,-0.09458 4.033842,-0.05746 5.689632,0.08964 0.88693,0.0788 2.41263,0.215187 3.39039,0.303083 1.29772,0.116658 2.2339,0.287682 3.46679,0.633469 0.92895,0.260441 2.3546,0.659353 3.16807,0.886479 1.57466,0.439649 3.97512,1.301276 5.38906,1.934362 1.82426,0.816795 2.58418,1.179867 2.84831,1.360856 0.29323,0.200947 1.26767,0.752131 1.95949,1.108369 0.23219,0.119576 0.63932,0.364539 0.90472,0.544375 0.26539,0.179837 0.76112,0.512541 1.10161,0.739344 0.9873,0.657657 2.65944,1.864626 2.724,1.966204 0.0324,0.05115 0.3946,0.344083 0.80464,0.650962 0.41005,0.306879 0.77059,0.607484 0.80116,0.668001 0.0307,0.06052 0.3567,0.357371 0.72469,0.659678 0.36798,0.302303 0.69514,0.59398 0.72702,0.64817 0.0319,0.0542 0.32342,0.348032 0.64786,0.65298 0.32445,0.304946 0.61705,0.593551 0.65025,0.641345 0.0331,0.0478 0.37897,0.420175 0.76841,0.827519 1.80199,1.884888 4.84504,6.168465 6.19848,8.72533 0.93813,1.772272 2.18376,4.527762 2.14099,4.736119 -0.0118,0.05727 0.0551,0.22473 0.14843,0.372176 0.17996,0.284099 1.51681,4.665337 1.57467,5.160673 0.0187,0.160465 0.12755,0.711741 0.24182,1.22507 0.11425,0.513329 0.19677,0.988335 0.18337,1.055569 -0.0135,0.06724 0.0273,0.343313 0.0906,0.613499 0.16308,0.696246 0.34439,2.365554 0.33323,3.068132 -0.005,0.3274 0.0278,0.66917 0.0731,0.759531 0.0455,0.09035 0.0621,0.496374 0.0373,0.902251 -0.0246,0.405898 -0.0199,0.953999 0.0112,1.218042 0.17737,1.51307 -0.48733,7.202481 -1.13278,9.695836 -0.49377,1.907475 -0.86264,2.550032 -2.33487,4.067492 -0.54477,0.5615 -1.00161,1.075109 -1.01523,1.141369 -0.0137,0.0663 -0.08,0.13275 -0.14762,0.14781 -0.0676,0.015 -0.5391,0.42155 -1.04775,0.90336 -1.33184,1.26155 -1.3741,1.29148 -2.0012,1.4169 -0.52356,0.10473 -0.61609,0.0806 -1.13525,-0.29564 z"
       id="path841" />
    <path
       style="opacity:0.92;fill:#005400;fill-opacity:1;stroke:#005400;stroke-width:0.150815;stroke-opacity:0"
       d="m 151.83391,76.582199 c -0.39133,-0.354467 -0.57548,-0.798847 -0.90296,-2.178744 -0.27251,-1.148361 -0.90896,-3.437477 -0.98344,-3.537242 -0.0355,-0.04752 -0.15811,-0.405664 -0.27249,-0.795895 -0.5244,-1.788711 -2.92707,-7.02094 -3.90503,-8.503799 -0.10515,-0.159458 -0.58977,-0.919409 -1.0769,-1.68878 -0.95045,-1.501152 -2.83883,-4.066548 -3.84356,-5.221516 -0.33946,-0.390231 -0.67762,-0.790363 -0.75147,-0.889182 -0.58772,-0.786456 -4.10722,-4.21084 -5.03063,-4.894637 -0.18666,-0.138221 -0.36441,-0.30075 -0.395,-0.361181 -0.0927,-0.183003 -3.65093,-2.822734 -4.61464,-3.423426 -0.49544,-0.308805 -1.0246,-0.643853 -1.17595,-0.744556 -0.90182,-0.60005 -1.64268,-1.048714 -1.77006,-1.071941 -0.0807,-0.0147 -0.34189,-0.155077 -0.58071,-0.311962 -0.6154,-0.404274 -2.16913,-1.187699 -2.85569,-1.439908 -0.31992,-0.117513 -0.63914,-0.276545 -0.70935,-0.353388 -0.0702,-0.07683 -0.3901,-0.232799 -0.71079,-0.346577 -0.32067,-0.113782 -0.79948,-0.316255 -1.06403,-0.449951 -0.79015,-0.399337 -3.61569,-1.336401 -6.71914,-2.22834 -2.90333,-0.834425 -10.15326,-1.896178 -11.79851,-1.727902 -0.26358,0.02695 -0.89477,0.01645 -1.40267,-0.02334 -0.5079,-0.03981 -1.280662,-0.04634 -1.717242,-0.01454 -0.43659,0.03179 -1.09072,0.04904 -1.4536,0.03833 -0.3629,-0.01072 -0.71022,0.03262 -0.77183,0.09633 -0.0616,0.06369 -0.26058,0.08843 -0.44217,0.05495 -0.29554,-0.05452 -2.538983,0.128896 -3.370502,0.275517 -2.083883,0.367443 -2.552582,0.435946 -2.743971,0.401046 -0.122722,-0.02237 -0.234975,0.01703 -0.249459,0.08757 -0.01449,0.07055 -0.214918,0.138536 -0.445401,0.151094 -0.230485,0.01256 -1.268287,0.233544 -2.306226,0.491078 -2.220654,0.55099 -2.767287,0.513824 -3.288942,-0.223617 -0.58174,-0.822379 -0.330701,-1.476115 1.209189,-3.148893 0.797338,-0.866146 0.775722,-0.848999 2.517919,-1.997118 1.432332,-0.943917 3.262038,-1.723071 4.315943,-1.837889 0.20364,-0.02219 0.412972,-0.07705 0.465201,-0.121951 0.09115,-0.07835 1.307656,-0.214426 2.640994,-0.295422 0.348389,-0.02115 0.780575,-0.06961 0.960415,-0.107646 0.32453,-0.06865 1.602,-0.110941 3.857622,-0.127699 6.04244,-0.0449 13.3606,1.094102 19.09429,2.971836 2.74771,0.899851 6.14423,2.219737 6.55154,2.545921 0.12826,0.102708 0.31899,0.202098 0.42381,0.22085 0.19678,0.03526 2.38559,1.115112 2.87743,1.419667 0.15262,0.09449 0.68859,0.397482 1.19103,0.673283 0.50245,0.275804 1.09989,0.622171 1.32763,0.769703 0.22774,0.147536 0.8201,0.518513 1.31638,0.82441 0.9555,0.58896 4.80884,3.352953 4.90715,3.519897 0.0319,0.05416 0.36931,0.350729 0.74982,0.659071 1.47719,1.197046 2.41591,2.028966 3.28657,2.912688 0.49827,0.50572 1.0535,1.057543 1.23389,1.226276 0.18039,0.168729 0.35485,0.347196 0.38772,0.396595 0.0328,0.04941 0.29176,0.330779 0.57536,0.625295 0.28356,0.294513 0.58056,0.616923 0.65993,0.716456 0.0793,0.09956 0.3858,0.460054 0.68086,0.801145 0.29508,0.341096 0.59763,0.698479 0.67233,0.794187 0.0747,0.09572 0.68815,0.879149 1.36319,1.740983 1.99324,2.544818 4.50508,6.628402 5.84821,9.507624 2.05375,4.402521 2.22277,5.751554 1.32822,10.600149 -0.59013,3.198517 -0.73321,3.521012 -1.71156,3.842045 -0.61809,0.202994 -0.8919,0.144027 -1.37872,-0.296937 z"
       id="path843" />
    <path
       style="opacity:0.92;fill:#005400;fill-opacity:1;stroke:#b8db7c;stroke-width:0.150815;stroke-opacity:0"
       d="m 150.15639,43.931739 c -0.11502,-0.06811 -0.52672,-0.462228 -0.91486,-0.87581 -1.32897,-1.416032 -4.45553,-4.322201 -4.69745,-4.366316 -0.088,-0.01608 -0.17165,-0.08793 -0.1856,-0.159671 -0.06,-0.308159 -6.15083,-4.78564 -7.17882,-5.277171 -0.19582,-0.09362 -0.54129,-0.296096 -0.76775,-0.449931 -0.22645,-0.153839 -0.78955,-0.495945 -1.25137,-0.760245 -0.4618,-0.264302 -0.96501,-0.55543 -1.11824,-0.646956 -0.55562,-0.331885 -1.70152,-0.921103 -2.26321,-1.163754 -0.31603,-0.136519 -0.69786,-0.333246 -0.84857,-0.437177 -0.37122,-0.256047 -1.95493,-0.963293 -2.93662,-1.311426 -0.44095,-0.15638 -0.89513,-0.357184 -1.00931,-0.446243 -0.11415,-0.08906 -0.56859,-0.274939 -1.00988,-0.413067 -0.44125,-0.138132 -1.05988,-0.367622 -1.3747,-0.50998 -0.59433,-0.268744 -2.97792,-1.013109 -5.65803,-1.766909 -0.95098,-0.267477 -3.60334,-0.775046 -6.84647,-1.310191 -2.91177,-0.480467 -5.4942,-0.911147 -5.73876,-0.957079 -0.70433,-0.13232 -1.09469,-0.813757 -0.91532,-1.598007 0.21089,-0.922014 0.23938,-0.937468 3.40966,-1.846143 0.13935,-0.03995 0.58482,-0.144652 0.98994,-0.232699 0.40511,-0.08805 0.99466,-0.217409 1.31009,-0.287469 0.70435,-0.156437 1.83827,-0.326692 2.58174,-0.387632 0.30619,-0.02509 0.7048,-0.08136 0.88578,-0.125008 1.49228,-0.359938 6.67444,0.681852 11.11372,2.234223 2.48655,0.869528 4.07969,1.45937 4.28742,1.58738 0.11453,0.07058 0.56554,0.273125 1.00228,0.450125 1.35869,0.55065 2.64527,1.149548 2.88861,1.344622 0.12823,0.102811 0.31892,0.202273 0.42375,0.221023 0.25554,0.04574 2.48805,1.179027 3.03283,1.539601 0.23861,0.157929 0.52873,0.304444 0.64469,0.325591 0.11598,0.02114 0.26363,0.107119 0.32811,0.191043 0.0644,0.08393 0.37267,0.279511 0.68488,0.434641 0.53803,0.267347 0.72571,0.382366 1.8752,1.14933 0.26477,0.17666 0.91499,0.608717 1.44491,0.960129 0.83141,0.551328 2.84152,2.14158 3.22879,2.554354 2.15091,2.292639 3.63602,4.221644 4.62975,6.013507 0.21969,0.396159 0.45187,0.807801 0.51593,0.914758 0.16577,0.276801 0.94692,1.843079 1.446,2.899379 0.5731,1.212893 0.44665,1.992024 -0.40187,2.47605 -0.55662,0.317548 -1.10773,0.328905 -1.60726,0.03313 z"
       id="path845" />
    <path
       style="opacity:0.92;fill:#005400;fill-opacity:1;stroke:#b8db7c;stroke-width:0.150815;stroke-opacity:0"
       d="m 102.00629,111.77539 c -0.62113,-0.35066 -0.99984,-1.3559 -0.64699,-1.71736 0.13256,-0.13586 0.25811,-0.32974 0.27888,-0.4309 0.0207,-0.10119 0.22303,-0.40071 0.44946,-0.66572 0.2264,-0.26502 0.43064,-0.56257 0.45382,-0.66125 0.0237,-0.0984 0.22637,-0.41445 0.45153,-0.70171 0.22518,-0.28728 0.43419,-0.63135 0.46447,-0.76462 0.0309,-0.13319 0.12349,-0.26718 0.20707,-0.29757 0.0836,-0.0303 0.30696,-0.37979 0.49633,-0.77644 0.18942,-0.39664 0.417,-0.80867 0.50579,-0.9156 0.1936,-0.23309 0.6139,-1.05764 1.25288,-2.45787 0.25934,-0.56831 0.52696,-1.09037 0.59466,-1.1601 0.0677,-0.0697 0.24262,-0.47437 0.38861,-0.8992 0.14603,-0.424829 0.37125,-0.960399 0.5005,-1.190169 0.2919,-0.51885 1.26988,-3.426339 2.0061,-5.964016 0.80651,-2.780042 2.0866,-7.64016 1.93455,-8.527683 -0.50344,-2.939152 1.35882,-9.045469 -0.80003,-10.547647 -2.8869,-2.008755 -10.52942,1.146093 -13.795792,2.384051 -1.342747,0.508904 -3.222719,1.779294 -4.102451,2.772225 -1.33256,1.504039 -3.214684,1.794901 -3.943657,4.629494 -0.843591,3.280283 -2.601013,1.562535 -3.133598,2.789825 -0.231056,0.532438 -3.008411,1.248102 -3.145178,1.633577 -0.13674,0.385471 0.663165,-0.764134 0.585282,-0.696256 -0.655702,0.83193 -3.723333,1.983382 -3.552319,4.109427 -1.983911,-0.732511 -4.696548,5.330853 -5.8288,3.701309 -0.68132,-0.980564 1.727138,-2.287332 1.851346,-2.905074 0.03991,-0.198474 3.719962,-1.598985 3.867141,-1.858889 1.376453,-2.430958 3.386679,-3.303849 4.034309,-6.334951 0.798874,-3.739062 1.525712,-5.558887 3.083441,-7.72058 2.200187,-3.053232 5.603365,-5.406417 9.275511,-6.413717 1.639243,-0.449656 2.634653,-0.640651 3.303633,-0.633878 0.31819,0.003 0.65819,-0.03331 0.75554,-0.08115 0.0974,-0.04784 1.046542,-0.008 2.109322,0.08875 1.48793,0.135328 2.34968,0.292475 3.74724,0.683346 0.99821,0.279184 1.91386,0.582213 2.03478,0.673404 0.12092,0.09119 0.74366,0.440217 1.38386,0.775622 4.0476,2.12049 7.22614,6.288285 8.1318,10.66267 0.0971,0.469166 0.16563,0.908037 0.15223,0.975269 -0.0135,0.06724 0.0334,0.344399 0.10399,0.615926 0.13989,0.537999 0.13437,1.553691 -0.0196,3.593341 -0.0717,0.949319 -0.30619,2.095432 -0.83955,4.10026 -1.10464,4.155858 -1.81313,6.563345 -2.06532,7.018225 -0.12394,0.22365 -0.34868,0.78708 -0.49928,1.25211 -0.31158,0.961999 -1.3773,3.554439 -1.71218,4.164989 -0.12271,0.22386 -0.31642,0.62509 -0.43031,0.8916 -0.18384,0.43013 -0.74413,1.49148 -1.79666,3.4034 -1.61989,2.9425 -2.61164,4.00913 -3.89567,4.18984 -0.69532,0.0977 -3.59239,-0.44496 -4.19715,-0.78639 z"
       id="path847" />
    <path
       style="opacity:0.92;fill:#005400;fill-opacity:1;stroke:#b8db7c;stroke-width:0.150815;stroke-opacity:0"
       d="m 92.058408,107.53845 c -0.185192,-0.14529 -0.769071,-0.55768 -1.297492,-0.91643 -1.301162,-0.88335 -1.775264,-1.40465 -1.78866,-1.96673 -0.01183,-0.4958 0.530751,-1.68075 0.751189,-1.64055 0.0721,0.0132 0.150063,-0.0566 0.173176,-0.15498 0.02352,-0.0983 0.22626,-0.41393 0.451433,-0.70119 0.225164,-0.28727 0.422972,-0.57684 0.439576,-0.64348 0.01697,-0.0665 0.170791,-0.30718 0.342633,-0.53449 0.450665,-0.59615 1.024447,-1.534589 1.325909,-2.168629 0.143707,-0.30211 0.350445,-0.66737 0.45953,-0.81164 0.270872,-0.35827 1.234384,-0.43899 1.816368,-1.937033 0.268015,-0.689867 1.498828,-1.256948 1.634528,-1.519489 0.34571,-0.668843 2.32282,0.453147 3.10288,-2.657002 0.36417,-1.452113 1.346662,-0.248542 1.449502,-0.393956 0.45088,-0.63749 3.47982,-3.28733 4.47424,-3.449942 1.05794,-0.172998 7.56841,-7.305396 8.47615,-6.76808 0.8848,0.523697 -3.18738,2.819119 -2.85138,3.668272 0.2516,0.635866 -1.81656,4.248927 -4.58704,6.496654 -3.66679,2.974896 -5.58183,5.484294 -7.062012,8.259716 -0.21943,0.411449 -0.57493,1.085349 -0.79004,1.497579 -0.48454,0.92867 -1.26195,2.22792 -1.66266,2.7788 -0.16612,0.22837 -0.31129,0.46037 -0.32262,0.51556 -0.0113,0.0552 -0.15909,0.28676 -0.3284,0.51454 -1.589511,2.13892 -2.055013,2.67776 -2.445667,2.83112 -0.517483,0.20313 -1.288143,0.0726 -1.761143,-0.29862 z"
       id="path849" />
    <path
       style="opacity:0.98;fill:#333333;fill-opacity:1;stroke:#b8db7c;stroke-width:0.150815;stroke-opacity:0"
       d="m 41.576259,187.49391 c -0.125716,-0.17437 -0.307999,-0.30179 -0.405072,-0.28314 -0.213838,0.041 -0.88048,-0.71127 -0.729437,-0.82329 0.05877,-0.0435 0.01949,-0.20294 -0.08735,-0.35414 -0.207355,-0.29348 -0.243036,-1.22139 -0.05023,-1.30572 0.06365,-0.0278 0.04908,-0.0742 -0.03231,-0.10291 -0.08141,-0.0288 -0.0527,-0.21222 0.06375,-0.40766 0.116428,-0.19546 0.268438,-0.47611 0.337722,-0.62371 0.124734,-0.26576 1.956246,-1.78215 1.869874,-1.54818 -0.02471,0.0669 0.40128,-0.0819 0.946575,-0.33029 0.545305,-0.24853 1.042608,-0.43382 1.105113,-0.41173 0.06247,0.0221 0.245558,-0.0566 0.406805,-0.17514 0.161238,-0.11843 0.336028,-0.16265 0.388423,-0.0981 0.0524,0.0644 0.168591,0.0384 0.258396,-0.059 0.08974,-0.0968 0.262223,-0.14106 0.383351,-0.0981 0.121128,0.0426 0.244485,0.0161 0.274209,-0.0594 0.02966,-0.0755 0.153082,-0.10239 0.274207,-0.0594 0.121131,0.0426 0.283558,0.009 0.360962,-0.0741 0.07739,-0.0836 0.287426,-0.11176 0.466737,-0.0627 0.179292,0.049 0.450316,0.011 0.602246,-0.0847 0.151941,-0.0957 0.256483,-0.12362 0.232337,-0.0622 -0.02412,0.0614 0.09167,0.0663 0.257393,0.0108 0.165717,-0.0555 0.430706,-0.0755 0.588856,-0.0445 0.158164,0.031 0.578765,0.0181 0.934724,-0.0289 0.355947,-0.047 0.729021,-0.0564 0.82906,-0.0211 0.100035,0.0353 0.205909,0.003 0.235235,-0.0713 0.02932,-0.0746 0.32351,-0.0845 0.653699,-0.0219 0.330234,0.0623 0.668254,0.0403 0.75123,-0.0492 0.083,-0.0894 0.311479,-0.1061 0.507766,-0.0368 0.196304,0.0693 0.453076,0.0482 0.57063,-0.047 0.117551,-0.0953 0.253513,-0.14744 0.302132,-0.11602 0.200478,0.12961 1.020899,0.17095 1.066896,0.0541 0.02737,-0.0696 0.130795,-0.0983 0.229919,-0.0641 0.09917,0.0342 0.938492,-0.0212 1.865269,-0.12315 0.926767,-0.10209 1.724906,-0.13653 1.773639,-0.0767 0.04868,0.0599 0.162005,0.0296 0.251722,-0.0672 0.08973,-0.0968 0.262213,-0.14107 0.383348,-0.0981 0.12113,0.0426 0.244487,0.0161 0.274209,-0.0594 0.02966,-0.0756 0.153085,-0.10239 0.2742,-0.0594 0.121131,0.0426 0.283569,0.009 0.360972,-0.0741 0.07739,-0.0837 0.287427,-0.11177 0.466738,-0.0628 0.179292,0.0491 0.450315,0.011 0.602248,-0.0847 0.151929,-0.0957 0.255688,-0.12164 0.230564,-0.0576 -0.02511,0.0639 0.127735,0.05 0.339661,-0.0308 0.211931,-0.0808 0.365311,-0.0902 0.340839,-0.0211 -0.02449,0.0691 0.06399,0.0409 0.196564,-0.0627 0.132574,-0.10371 0.295704,-0.16924 0.362498,-0.14563 0.06681,0.0238 0.40216,-0.069 0.745248,-0.20591 0.343077,-0.13685 0.714018,-0.21694 0.824294,-0.17798 0.110278,0.039 0.224783,0.009 0.254482,-0.0665 0.02966,-0.0755 0.126276,-0.11182 0.21462,-0.0805 0.08836,0.0312 0.509017,-0.10179 0.934816,-0.29536 0.425798,-0.19366 0.836677,-0.33 0.913081,-0.30302 0.07637,0.0271 0.256767,-0.05 0.4008,-0.1712 0.144033,-0.12116 0.352319,-0.18836 0.462851,-0.14929 0.110545,0.0391 0.290632,-0.0382 0.400214,-0.17142 0.109631,-0.13334 0.289681,-0.21047 0.400213,-0.1714 0.110514,0.0392 0.320474,-0.0295 0.466522,-0.15238 0.146057,-0.12286 0.310645,-0.16798 0.365763,-0.10032 0.05509,0.0678 0.275358,-0.0285 0.489437,-0.2137 0.214083,-0.18526 0.470691,-0.30807 0.570253,-0.27287 0.09955,0.0352 0.369679,-0.0819 0.600264,-0.25992 0.230587,-0.17813 0.463717,-0.26925 0.518059,-0.20247 0.05439,0.0667 0.332087,-0.0827 0.617204,-0.33214 0.285115,-0.24947 0.563374,-0.39827 0.618372,-0.33069 0.05496,0.0676 0.381471,-0.0961 0.725499,-0.36382 0.344027,-0.26765 0.70323,-0.45919 0.79821,-0.42563 0.09499,0.0336 0.497615,-0.19369 0.894725,-0.50502 0.397118,-0.31137 0.779344,-0.53295 0.849392,-0.49239 0.07002,0.0405 0.628907,-0.30879 1.241914,-0.7763 0.613005,-0.46751 1.151796,-0.80425 1.197324,-0.74831 0.11049,0.13578 24.377285,-18.58747 24.575145,-18.96113 0.0849,-0.16047 0.30471,-0.414 0.48834,-0.56337 0.18364,-0.1494 0.3972,-0.39 0.47459,-0.53474 0.0774,-0.14475 0.25616,-0.43351 0.39734,-0.64173 0.87635,-1.29274 1.23361,-3.46623 0.66997,-4.07605 -0.11818,-0.12786 -0.18434,-0.31014 -0.14706,-0.40501 0.0887,-0.2255 -2.45308,-3.21148 -2.6942,-3.16513 -0.10177,0.0194 -0.23897,-0.0547 -0.30513,-0.1648 -0.0662,-0.11015 -0.35139,-0.26704 -0.6338,-0.34861 -0.28241,-0.0816 -0.56832,-0.22678 -0.63536,-0.32271 -0.07,-0.10032 -0.37568,-0.16446 -0.718702,-0.15079 -0.32823,0.0129 -0.58215,-0.0137 -0.5642,-0.0594 0.0174,-0.0457 -0.12616,-0.0224 -0.32018,0.0516 -0.19405,0.074 -0.37266,0.0931 -0.3969,0.042 -0.0242,-0.0508 -0.28609,0.10291 -0.58182,0.34154 -0.29575,0.23867 -0.61779,0.40564 -0.71562,0.37106 -0.098,-0.0346 -0.63624,0.3031 -1.196425,0.7504 -0.560189,0.44729 -1.084627,0.78992 -1.165416,0.76137 -0.08075,-0.0285 -0.312902,0.0417 -0.51579,0.15628 -0.294121,0.16603 -0.555766,0.15196 -1.291027,-0.0694 -0.819926,-0.24686 -0.988416,-0.3568 -1.520042,-0.99058 -0.328849,-0.39212 -0.568342,-0.78815 -0.532222,-0.88008 0.03615,-0.0919 -0.02277,-0.27013 -0.130952,-0.39603 -0.108161,-0.12592 -0.150249,-0.21471 -0.09354,-0.19728 0.05662,0.0179 0.108775,-0.23726 0.115602,-0.56602 0.0078,-0.36817 0.09051,-0.65427 0.215658,-0.74506 0.111815,-0.081 0.248087,-0.25869 0.302949,-0.3948 0.05516,-0.136 1.368561,-1.22547 2.919303,-2.4208 1.550756,-1.19533 2.866612,-2.29253 2.924142,-2.43821 0.0575,-0.14569 0.5164,-0.57689 1.01972,-0.95825 0.50332,-0.38137 0.86185,-0.73627 0.79673,-0.78868 -0.065,-0.0525 0.10157,-0.2584 0.37035,-0.45774 0.885492,-0.65666 1.708842,-2.43515 1.642802,-3.54854 -0.0234,-0.39547 -0.0863,-0.75786 -0.13929,-0.80532 -0.053,-0.0474 -0.0629,-0.17229 -0.0215,-0.27737 0.0412,-0.10509 -0.0832,-0.35734 -0.2764,-0.5606 -0.19331,-0.20326 -0.29692,-0.41 -0.23027,-0.45945 0.15468,-0.11468 -1.389362,-1.95527 -1.605402,-1.91374 -0.0888,0.0172 -0.32958,-0.1651 -0.53496,-0.405 -0.20825,-0.24312 -0.58618,-0.49465 -0.85418,-0.56846 -0.26437,-0.073 -0.53776,-0.20253 -0.60752,-0.28831 -0.0697,-0.0858 -0.40889,-0.16005 -0.753678,-0.16502 -0.344754,-0.005 -0.61437,-0.0407 -0.599164,-0.0795 0.04524,-0.11521 -1.086691,0.0845 -1.284626,0.22661 -0.100361,0.0722 -0.260763,0.1034 -0.356454,0.0695 -0.09567,-0.0339 -0.305908,0.0355 -0.467147,0.15383 -0.161235,0.11842 -0.33055,0.16938 -0.37625,0.11322 -0.04579,-0.0561 -0.978532,0.59066 -2.072939,1.43736 -1.0944,0.84672 -2.025974,1.4951 -2.070139,1.44082 -0.04413,-0.0544 -0.212241,-0.002 -0.373472,0.11665 -0.161238,0.11842 -0.371446,0.18766 -0.467134,0.1538 -0.09567,-0.0337 -0.256503,-0.001 -0.357415,0.0721 -0.100902,0.0735 -0.483787,0.10392 -0.850878,0.0679 -0.53601,-0.0529 -0.710537,-0.12525 -0.886196,-0.36909 -0.120324,-0.1669 -0.328046,-0.3022 -0.461607,-0.30069 -0.146177,0.002 -0.391918,-0.29749 -0.617503,-0.75181 -0.206064,-0.41503 -0.442361,-0.77851 -0.525104,-0.80775 -0.08276,-0.0292 -0.09679,-0.0767 -0.03117,-0.10532 0.06554,-0.0287 0.118475,-0.22479 0.117525,-0.43581 -0.0034,-0.77007 0.164914,-1.2475 0.53027,-1.504 0.199345,-0.13997 0.347612,-0.32617 0.329495,-0.41379 -0.01809,-0.0876 1.269821,-1.16662 2.862101,-2.39777 1.592288,-1.23113 2.955815,-2.35772 3.030068,-2.50356 0.0743,-0.14582 0.276879,-0.55304 0.450291,-0.90494 0.173405,-0.35188 0.364303,-0.66122 0.424207,-0.68743 0.05991,-0.0262 0.106558,-0.23483 0.103648,-0.46363 -0.003,-0.22879 0.02594,-0.54573 0.06409,-0.70431 0.09858,-0.40959 0.01065,-1.63879 -0.12049,-1.68512 -0.06034,-0.0218 -0.08863,-0.0931 -0.0627,-0.15895 0.174395,-0.44373 -1.48912,-2.83358 -2.280119,-3.27566 -0.926896,-0.51806 -3.000891,-1.11161 -3.246844,-0.92923 -0.09557,0.0708 -0.318079,0.10063 -0.494454,0.066 -0.17643,-0.0343 -0.456271,-0.0176 -0.621986,0.038 -0.165718,0.0555 -0.282075,0.0463 -0.2586,-0.0203 0.02355,-0.0668 -0.06574,-0.0365 -0.198337,0.0672 -0.132577,0.10371 -0.320193,0.16058 -0.416917,0.1264 -0.09674,-0.0343 -0.382862,0.11107 -0.635859,0.32278 -0.252996,0.21174 -0.538144,0.35732 -0.633661,0.32357 -0.09551,-0.0337 -1.383136,0.88102 -2.861389,2.03287 -1.478236,1.15182 -2.761682,2.07093 -2.852103,2.04243 -0.09037,-0.0287 -0.301074,0.0387 -0.468125,0.14928 -0.167054,0.11057 -0.536732,0.15861 -0.821518,0.10676 -0.284779,-0.0519 -0.667496,-0.0746 -0.850447,-0.0505 -0.233749,0.0306 -0.372746,-0.0229 -0.467493,-0.18076 -0.07414,-0.12345 -0.224885,-0.24367 -0.334946,-0.26712 -0.408165,-0.087 -0.520625,-0.20711 -0.888983,-0.94895 -0.207257,-0.4174 -0.345993,-0.74802 -0.308313,-0.73469 0.03765,0.0133 0.06772,-0.15569 0.06681,-0.37555 -0.0032,-0.69942 0.165911,-1.28997 0.407079,-1.42237 0.12856,-0.0705 0.217699,-0.20606 0.198068,-0.30104 -0.01965,-0.0951 7.852673,-6.25675 17.494022,-13.692879 9.641378,-7.436125 17.545588,-13.601778 17.564988,-13.701437 0.0197,-0.09962 0.22041,-0.362144 0.44679,-0.583267 0.71828,-0.701755 1.0217,-1.134909 1.02333,-1.460866 8.8e-4,-0.174185 0.0861,-0.379231 0.18896,-0.455668 0.19311,-0.143199 0.25213,-0.89204 0.13719,-1.740791 -0.0358,-0.264615 -0.0191,-0.51529 0.0373,-0.557067 0.0562,-0.04178 0.0196,-0.145576 -0.0815,-0.230663 -0.10126,-0.08509 -0.16146,-0.211922 -0.13397,-0.281843 0.16455,-0.418638 -1.60935,-2.989562 -2.19132,-3.175933 -0.12002,-0.03846 -0.30162,-0.139001 -0.40353,-0.22348 -0.40957,-0.339514 -1.85214,-0.81922 -2.39868,-0.797659 -0.31395,0.01241 -0.60243,0.0053 -0.64107,-0.01597 -0.21236,-0.116266 -1.00646,-0.143015 -1.0488,-0.03531 -0.0272,0.06958 -0.14448,0.09294 -0.26034,0.05198 -0.11585,-0.04095 -0.32851,0.02469 -0.47254,0.145857 -0.14403,0.121168 -0.34052,0.192513 -0.43662,0.158547 -0.0962,-0.03396 -11.382413,8.583537 -25.080663,19.149991 -21.326696,16.450848 -25.700684,19.747528 -25.490275,19.212158 0.01733,-0.0444 -0.238197,-0.003 -0.567996,0.0906 -0.465183,0.13292 -0.723702,0.11328 -1.153027,-0.0875 -0.30437,-0.1424 -0.743987,-0.33656 -0.976938,-0.43143 -0.232953,-0.0949 -0.53146,-0.31167 -0.663352,-0.48171 -0.131902,-0.17004 -0.326538,-0.2925 -0.432535,-0.27213 -0.106011,0.0204 -0.246844,-0.0514 -0.313004,-0.1596 -0.06616,-0.10812 -0.377692,-0.29177 -0.692295,-0.40812 -0.886726,-0.32796 -2.350129,-0.99366 -2.396114,-1.09002 -0.02273,-0.0477 -0.220464,-0.0855 -0.439567,-0.0835 -0.219033,0.002 -0.552554,-0.0209 -0.741184,-0.0507 -1.138677,-0.17971 -1.908341,-0.22832 -2.461917,-0.15528 -0.345883,0.0457 -0.6654,0.0382 -0.710038,-0.0167 -0.04464,-0.0549 -0.154529,-0.0207 -0.244283,0.0764 -0.08973,0.0968 -0.227253,0.15342 -0.305634,0.12573 -0.07836,-0.0278 -0.503766,0.1035 -0.945297,0.29163 -0.441529,0.18812 -0.853946,0.32392 -0.916481,0.30183 -0.06251,-0.022 -0.261011,0.0837 -0.44106,0.2352 -0.180051,0.15147 -0.406112,0.24755 -0.502363,0.21352 -0.215595,-0.0761 -4.496576,3.21632 -4.453403,3.42513 0.0171,0.0826 -0.195059,0.32505 -0.471432,0.53878 -0.276375,0.21376 -0.478886,0.4381 -0.450028,0.49855 0.02885,0.0603 -0.128284,0.26587 -0.349187,0.45652 -0.374611,0.32328 -0.584584,0.60445 -0.935653,1.25293 -0.0782,0.14442 -0.267571,0.36743 -0.420838,0.49553 -0.153265,0.12809 -0.254886,0.28276 -0.225819,0.34366 0.02906,0.0609 -0.04217,0.20335 -0.158289,0.31657 -0.116124,0.11324 -0.277782,0.32313 -0.359226,0.46642 -0.08144,0.14329 -0.258652,0.43263 -0.393792,0.64299 -0.13514,0.21034 -0.369671,0.62024 -0.521166,0.91084 -0.151501,0.29061 -0.408765,0.76285 -0.571708,1.04942 -0.277278,0.48766 -0.418556,0.81198 -0.649566,1.49118 -0.05223,0.15362 -0.180233,0.46036 -0.284282,0.6817 -0.104115,0.22132 -0.251392,0.63921 -0.3273,0.92866 -0.0759,0.28942 -0.217766,0.58539 -0.315255,0.65768 -0.09746,0.0724 -0.176455,0.30873 -0.175496,0.52543 9.58e-4,0.21669 -0.08346,0.68552 -0.187616,1.04178 -0.473375,1.61941 -0.614368,2.25434 -0.651201,2.93245 -0.0091,0.16784 -0.09547,0.57167 -0.19191,0.89738 -0.187329,0.63276 -0.268661,1.0825 -0.292799,1.61912 -0.0084,0.18379 -0.0864,0.55532 -0.173632,0.82562 -0.201726,0.6251 -0.324289,1.32303 -0.322026,1.83357 9.7e-4,0.21987 -0.02986,0.38858 -0.06852,0.37494 -0.03869,-0.0136 -0.06103,0.21529 -0.04973,0.5088 0.01132,0.29392 -0.06199,0.59486 -0.163187,0.66991 -0.101055,0.0749 -0.189354,0.40521 -0.196217,0.73393 -0.0067,0.32873 -0.04037,0.58785 -0.07444,0.5758 -0.03418,-0.0116 -0.05995,0.17241 -0.05738,0.40992 0.0064,0.62004 -0.04953,0.93605 -0.310368,1.74819 -0.12721,0.39613 -0.209814,0.82414 -0.183553,0.95111 0.02625,0.12704 -0.03831,0.48248 -0.143492,0.7899 -0.240904,0.70412 -0.380054,1.47489 -0.330408,1.83031 0.02106,0.1508 -0.04931,0.33915 -0.156344,0.41855 -0.107373,0.0796 -0.193916,0.31456 -0.192985,0.52391 9.3e-4,0.20878 -0.06442,0.54352 -0.145292,0.74389 -0.08082,0.20038 -0.306202,0.8712 -0.500856,1.49072 -0.650288,2.06969 -1.638937,4.40129 -2.307447,5.44185 -0.135146,0.21033 -0.30945,0.50071 -0.38735,0.64527 -0.0779,0.14453 -0.335017,0.42529 -0.571375,0.62391 -0.236356,0.19862 -0.41754,0.42012 -0.402631,0.4922 0.01492,0.0722 -0.337885,0.42052 -0.783986,0.77427 -0.446099,0.35373 -0.790908,0.57988 -0.766245,0.50256 0.02469,-0.0772 -0.117491,-0.0523 -0.315894,0.0558 -0.318538,0.17336 -1.449611,0.27031 -1.3902,0.11913 0.01262,-0.0319 -0.171087,-0.0563 -0.40798,-0.0545 -0.299371,0.002 -0.471445,-0.0641 -0.563976,-0.21796 -0.07323,-0.12191 -0.227435,-0.22245 -0.342675,-0.22344 -0.276248,-0.002 -0.848267,-0.66866 -0.762147,-0.88781 0.03711,-0.0945 -0.03055,-0.27759 -0.15032,-0.40716 -0.203912,-0.22062 -0.297188,-1.20887 -0.107787,-1.14192 0.0476,0.0172 0.02156,-0.1262 -0.05806,-0.31787 -0.08196,-0.1973 -0.07136,-0.3626 0.02437,-0.38101 0.09302,-0.0179 0.298156,-0.25156 0.455841,-0.51928 0.522698,-0.8874 0.605771,-0.99966 0.94224,-1.27336 0.345434,-0.281 0.418209,-0.38846 0.939454,-1.38726 0.170581,-0.3269 0.409789,-0.7689 0.531555,-0.98227 0.121767,-0.21338 0.220738,-0.53409 0.219951,-0.71268 -7.94e-4,-0.1786 0.101259,-0.4079 0.226794,-0.50958 0.125521,-0.10169 0.176026,-0.20331 0.112221,-0.22585 -0.06381,-0.0225 0.03422,-0.46307 0.217847,-0.97893 0.517432,-1.45366 0.754192,-2.31786 0.752188,-2.7455 -0.001,-0.21546 0.114632,-0.64976 0.256982,-0.96512 0.14235,-0.31535 0.198819,-0.59457 0.125452,-0.62048 -0.07332,-0.0261 -0.07036,-0.0939 0.0065,-0.15088 0.07694,-0.057 0.121031,-0.23886 0.09798,-0.404 -0.02321,-0.16617 0.04399,-0.36394 0.15052,-0.44295 0.110469,-0.0819 0.19765,-0.39138 0.204639,-0.72638 0.0066,-0.32102 0.06474,-0.60665 0.128951,-0.63475 0.06423,-0.028 0.05207,-0.074 -0.02702,-0.10198 -0.0791,-0.0279 -0.116776,-0.12925 -0.08373,-0.22514 0.03308,-0.0959 0.09602,-0.44319 0.139933,-0.77182 0.04391,-0.32862 0.173815,-0.79309 0.288559,-1.03215 0.114788,-0.23903 0.161226,-0.45142 0.103195,-0.47195 -0.05808,-0.0202 -0.07859,-0.11577 -0.04571,-0.2117 0.106484,-0.31048 0.240592,-1.17514 0.207267,-1.33623 -0.01782,-0.0862 0.04895,-0.42048 0.148406,-0.74288 0.204641,-0.66344 0.38182,-1.53198 0.346893,-1.70073 -0.03609,-0.17453 0.13692,-1.06475 0.312926,-1.61018 0.08722,-0.2703 0.165368,-0.64184 0.173632,-0.82561 0.02595,-0.57687 0.102868,-1.01027 0.288858,-1.62789 0.09905,-0.32885 0.187207,-0.75524 0.195922,-0.94757 0.0088,-0.19232 0.08103,-0.57302 0.160646,-0.84603 0.07962,-0.27299 0.243275,-0.8487 0.363691,-1.27935 0.120415,-0.43067 0.257339,-0.87504 0.304279,-0.9875 0.04699,-0.11245 0.126893,-0.33059 0.177609,-0.48473 0.05074,-0.15415 0.184081,-0.4942 0.296294,-0.75568 0.112209,-0.26148 0.245909,-0.6014 0.297096,-0.75537 0.219479,-0.65995 1.440616,-3.40167 1.504941,-3.37895 0.03523,0.0129 0.356536,-0.55351 0.714149,-1.25835 0.172398,-0.33979 0.380528,-0.66755 0.462508,-0.72833 0.08196,-0.0607 0.248501,-0.34284 0.370053,-0.62675 0.12155,-0.28393 0.311571,-0.56912 0.422275,-0.63378 0.110703,-0.0647 0.184186,-0.20016 0.163304,-0.30114 -0.02088,-0.10109 0.118053,-0.29311 0.308762,-0.42699 0.190692,-0.13389 0.395926,-0.35743 0.456071,-0.49678 0.255411,-0.59172 0.498946,-0.9301 0.930437,-1.29284 0.252188,-0.21202 0.473325,-0.47136 0.491413,-0.57635 0.01811,-0.10501 0.235596,-0.34488 0.48335,-0.5331 0.247759,-0.18826 0.450969,-0.42491 0.451576,-0.52593 6.07e-4,-0.10099 0.283639,-0.38817 0.628948,-0.63809 0.345318,-0.24993 0.663325,-0.56818 0.706682,-0.70722 0.104431,-0.33494 2.612493,-2.28131 3.006265,-2.33302 0.169407,-0.0222 0.646299,-0.31248 1.059758,-0.64495 0.41346,-0.33247 0.797786,-0.54792 0.854061,-0.47877 0.05628,0.0691 0.277472,-0.0259 0.491555,-0.21111 0.214082,-0.18526 0.470696,-0.30806 0.570255,-0.27288 0.09956,0.0352 0.372899,-0.0843 0.607429,-0.26545 0.234525,-0.18118 0.449746,-0.28054 0.478266,-0.22079 0.02851,0.0597 0.236553,-0.0202 0.462287,-0.17776 0.225734,-0.15751 0.391394,-0.23673 0.368142,-0.17604 -0.02323,0.0607 0.236115,0.0292 0.576367,-0.07 0.340258,-0.0991 0.693438,-0.15396 0.784843,-0.12166 0.09139,0.0322 0.190457,-0.003 0.220168,-0.0786 0.02969,-0.0756 0.153084,-0.10238 0.274206,-0.0594 0.121133,0.0426 0.283563,0.009 0.360963,-0.0741 0.0774,-0.0836 0.287435,-0.11177 0.466738,-0.0627 0.179308,0.0491 0.450319,0.0109 0.602252,-0.0847 0.151936,-0.0957 0.257694,-0.12669 0.23502,-0.069 -0.02272,0.0577 0.178323,0.0369 0.446345,-0.0449 0.268165,-0.0824 0.530404,-0.0971 0.582753,-0.0328 0.05235,0.0644 0.2402,0.0978 0.417357,0.075 0.177242,-0.0233 0.489071,-0.0159 0.692977,0.0166 0.203807,0.0327 0.723689,0.0983 1.15511,0.1467 1.059325,0.11878 1.898337,0.33431 3.347168,0.85999 1.966992,0.71364 2.891589,1.12704 3.149948,1.40835 0.230331,0.2508 1.386966,-0.61992 23.60873,-17.772404 12.851533,-9.919816 23.477797,-18.027647 23.613857,-18.017352 0.13606,0.01032 0.60265,-0.273464 1.03688,-0.630575 0.43423,-0.357109 0.847242,-0.628886 0.917772,-0.603955 0.0705,0.02494 0.48952,-0.108575 0.93106,-0.29668 0.44152,-0.188104 0.8493,-0.325562 0.90619,-0.305461 0.0567,0.02006 0.23532,-0.06033 0.39656,-0.178771 0.16124,-0.118434 0.34123,-0.156249 0.4,-0.08406 0.0587,0.07222 0.1318,0.06779 0.1623,-0.0098 0.0307,-0.07764 0.13142,-0.07729 0.22425,7.76e-4 0.0929,0.07803 0.24839,0.05597 0.3457,-0.04907 0.0973,-0.105062 0.22733,-0.129084 0.28894,-0.05338 0.0615,0.07567 0.18304,0.06093 0.2698,-0.03272 0.12404,-0.133888 1.01818,-0.08025 1.42956,0.08579 0.0395,0.01592 0.34467,0.01816 0.6784,0.0051 0.65854,-0.02599 1.43968,0.07083 1.77156,0.219539 0.11488,0.05152 0.34093,0.132687 0.5023,0.180505 0.70525,0.208834 1.75821,0.626039 2.12578,0.842213 0.21948,0.129106 0.52299,0.294559 0.67443,0.367667 0.15143,0.07308 0.39095,0.262782 0.53226,0.421496 0.14134,0.158721 0.34307,0.301805 0.44829,0.31797 0.10526,0.01608 0.37256,0.224633 0.59407,0.463266 0.2215,0.238632 0.53624,0.498021 0.69943,0.576422 0.41427,0.19902 1.34182,1.314318 1.26201,1.51744 -0.0363,0.09223 0.1373,0.39696 0.38566,0.67719 0.24839,0.28023 0.46966,0.62246 0.49171,0.760515 0.0222,0.138062 0.18247,0.436958 0.35648,0.664245 0.17397,0.227272 0.26432,0.395324 0.20079,0.373432 -0.0636,-0.02184 -0.0317,0.225253 0.0707,0.549219 0.10241,0.323961 0.16083,0.65383 0.12971,0.733055 -0.0312,0.07923 0.03,0.216887 0.13585,0.305897 0.10582,0.08902 0.13163,0.206946 0.0574,0.262048 -0.0743,0.05509 -0.0724,0.179497 0.003,0.276243 0.1912,0.242204 0.28279,0.888755 0.1911,1.349012 -0.0421,0.210546 7e-5,0.49782 0.0933,0.638328 0.0932,0.140505 0.12646,0.24022 0.0736,0.221596 -0.0527,-0.01856 -0.095,0.146019 -0.094,0.365876 0.004,1.134412 -0.72972,3.113431 -1.94839,5.247821 -0.0817,0.14318 -0.34203,0.422838 -0.57838,0.621459 -0.23636,0.198613 -0.41734,0.421063 -0.4022,0.494329 0.0151,0.0732 -5.19495,4.160584 -11.57799,9.082931 -7.32326,5.647388 -11.574533,9.015958 -11.521449,9.129238 0.04624,0.0986 0.355896,0.28361 0.688068,0.41078 0.33218,0.12714 0.708028,0.3415 0.835236,0.47623 0.127205,0.13474 0.325519,0.24594 0.440687,0.24714 0.115168,10e-4 0.272753,0.10772 0.350243,0.23659 0.07746,0.12897 0.224938,0.21831 0.327726,0.19852 0.102783,-0.0196 0.485522,0.32527 0.850543,0.76674 0.365026,0.44146 0.741036,0.78778 0.835586,0.76961 0.221998,-0.0425 0.640768,0.4748 0.556912,0.68818 -0.0354,0.0899 0.243832,0.50482 0.620466,0.92173 0.37664,0.41691 0.66372,0.8117 0.63793,0.87727 -0.0259,0.0657 0.1411,0.48492 0.37082,0.93184 0.22973,0.44691 0.38976,0.88367 0.3556,0.97057 -0.0342,0.0869 0.002,0.18083 0.0817,0.20881 0.0791,0.028 0.10658,0.14548 0.0612,0.26116 -0.0454,0.11571 -0.0112,0.2704 0.0761,0.34383 0.0874,0.0734 0.1159,0.27355 0.0636,0.44474 -0.0523,0.17117 -0.0233,0.41533 0.0644,0.54255 0.0877,0.12722 0.1043,0.25545 0.0369,0.28495 -0.0673,0.0295 -0.0821,0.22856 -0.0323,0.44241 0.0822,0.35424 0.0902,1.28935 0.0161,1.84863 -0.0162,0.12331 -0.13788,0.48766 -0.2699,0.80975 -0.28444,0.69379 -0.005,1.5265 0.5194,1.55007 0.16813,0.007 0.32223,0.0942 0.34254,0.19209 0.0203,0.098 0.11467,0.16343 0.20972,0.14519 0.31297,-0.0602 1.269252,0.25517 1.395362,0.46013 0.068,0.11051 0.22846,0.19976 0.35656,0.19826 0.1281,-0.001 0.31754,0.12056 0.42126,0.27043 0.10366,0.1502 0.28456,0.27197 0.40217,0.27064 0.11759,-10e-4 0.33683,0.15726 0.48715,0.3525 0.15034,0.19521 0.34915,0.34038 0.4418,0.32258 0.22562,-0.0433 3.55157,3.86307 3.47107,4.07688 -0.0345,0.0925 0.0417,0.28123 0.16992,0.41989 0.1282,0.13869 0.17476,0.29542 0.10346,0.34827 -0.0713,0.0528 0.0286,0.26243 0.22187,0.46565 0.1933,0.20327 0.31826,0.45409 0.27766,0.55738 -0.0406,0.10328 0.0126,0.26065 0.11865,0.34967 0.10582,0.0889 0.13164,0.20695 0.0574,0.26205 -0.0743,0.0552 -0.0587,0.18597 0.0346,0.29082 0.0933,0.10479 0.13631,0.34135 0.0957,0.52558 -0.0402,0.18433 -0.0234,0.39985 0.0383,0.47911 0.0913,0.11713 0.0286,0.80171 -0.12376,1.35002 -0.0168,0.0594 -0.0293,0.27028 -0.0285,0.4686 0.004,1.06475 -0.97594,3.8954 -1.4757,4.25957 -0.14827,0.10804 -0.26883,0.29513 -0.2679,0.41574 9.8e-4,0.1206 -0.11084,0.28109 -0.24853,0.35665 -0.1376,0.0756 -0.23417,0.21478 -0.21462,0.30941 0.0196,0.0947 -0.21103,0.36941 -0.51247,0.6106 -0.47504,0.38011 -0.52636,0.46662 -0.3852,0.64923 0.0896,0.11585 0.26482,0.23261 0.38943,0.25935 0.12456,0.027 0.34265,0.17737 0.4845,0.33472 0.14189,0.15734 0.3442,0.2989 0.44964,0.31456 0.10557,0.0148 0.3081,0.15806 0.45042,0.3164 0.14231,0.15838 0.3318,0.2739 0.42109,0.25673 0.0893,-0.0172 0.53223,0.4052 0.98429,0.93861 0.45203,0.5334 0.90729,0.97249 1.01167,0.97574 0.25243,0.007 1.24234,1.17521 1.09147,1.28709 -0.0648,0.0481 0.16204,0.40838 0.50425,0.80056 0.34223,0.39221 0.59167,0.79082 0.55433,0.88582 -0.0374,0.095 0.0614,0.31262 0.21942,0.48358 0.15801,0.17098 0.25421,0.39506 0.21376,0.49798 -0.0405,0.10291 0.008,0.25676 0.11039,0.34185 0.10126,0.0851 0.13342,0.19216 0.0717,0.23795 -0.0617,0.0459 -0.001,0.22706 0.13381,0.40285 0.13536,0.17577 0.20033,0.46936 0.14438,0.65245 -0.0559,0.18308 -0.0426,0.37826 0.0296,0.43376 0.0723,0.0556 0.0963,0.19041 0.0532,0.2998 -0.0429,0.10939 -0.001,0.26328 0.0921,0.34198 0.13549,0.11398 0.0732,0.96874 -0.0934,1.28209 -0.0195,0.0361 -0.0287,0.43482 -0.0208,0.8858 0.008,0.51889 -0.0517,0.83261 -0.16511,0.85435 -0.0985,0.0189 -0.18668,0.1757 -0.19604,0.34839 -0.0243,0.44789 -0.25443,1.13499 -0.38886,1.1608 -0.0628,0.012 -0.23247,0.35274 -0.37728,0.75712 -0.14479,0.4044 -0.41752,0.87431 -0.60591,1.04434 -0.20303,0.18318 -0.28339,0.33003 -0.19723,0.36047 0.0799,0.0282 -0.057,0.2037 -0.30429,0.38983 -0.24733,0.18613 -0.43626,0.40325 -0.4199,0.48247 0.0163,0.0792 -0.19158,0.31529 -0.46221,0.52457 -0.27058,0.20926 -0.4775,0.45054 -0.4598,0.53616 0.0177,0.0856 -0.51744,0.57744 -1.18926,1.0929 -0.67179,0.51547 -1.25852,1.0482 -1.3038,1.18387 -0.10834,0.32439 -19.000708,14.89626 -19.266159,14.86011 -0.112435,-0.0152 -1.199199,0.74653 -2.415111,1.69293 -1.215918,0.94642 -2.349578,1.73899 -2.519243,1.76127 -0.169683,0.0223 -0.701792,0.3593 -1.18248,0.74888 -0.480696,0.3896 -1.02125,0.7277 -1.201254,0.75132 -0.179996,0.0238 -0.567366,0.23675 -0.860823,0.47358 -0.29346,0.23683 -0.572445,0.38281 -0.619983,0.32439 -0.04751,-0.0583 -0.367884,0.11283 -0.711913,0.38051 -0.344036,0.26766 -0.706247,0.45811 -0.804914,0.42325 -0.09866,-0.035 -0.386408,0.10982 -0.639405,0.32153 -0.252992,0.21171 -0.540691,0.35643 -0.639309,0.32156 -0.09862,-0.035 -0.35259,0.0866 -0.564362,0.26984 -0.211777,0.18326 -0.469517,0.30336 -0.572767,0.26686 -0.103238,-0.0365 -0.335039,0.0575 -0.515083,0.20906 -0.180052,0.15146 -0.411838,0.24553 -0.515087,0.20902 -0.103236,-0.0366 -0.360991,0.0836 -0.572763,0.26688 -0.211771,0.18326 -0.476085,0.30103 -0.587365,0.2617 -0.111277,-0.0394 -0.292001,0.0377 -0.401581,0.17095 -0.10962,0.13334 -0.289689,0.21047 -0.40022,0.1714 -0.110536,-0.0391 -0.320466,0.0295 -0.466517,0.15238 -0.146062,0.12285 -0.310268,0.16846 -0.364921,0.10139 -0.05466,-0.0671 -0.218865,-0.0216 -0.364921,0.10139 -0.146065,0.12287 -0.355989,0.19143 -0.466525,0.15237 -0.110535,-0.0391 -0.29063,0.0382 -0.400205,0.17142 -0.10962,0.13335 -0.293992,0.20895 -0.409793,0.16802 -0.11578,-0.0409 -0.283929,0.005 -0.373653,0.1018 -0.08973,0.0968 -0.199909,0.13089 -0.244862,0.0757 -0.04494,-0.0553 -0.390066,0.0168 -0.766889,0.16006 -0.655618,0.24925 -0.94377,0.32041 -1.814269,0.44804 -0.215077,0.0315 -0.461522,0.1028 -0.547644,0.15842 -0.08615,0.0557 -0.226028,0.0765 -0.310898,0.0466 -0.08486,-0.03 -0.224753,-0.009 -0.310901,0.0466 -0.08613,0.0556 -0.33256,0.12689 -0.547638,0.15843 l -0.782096,0.11469 c -0.215075,0.0315 -0.461521,0.10279 -0.54764,0.15839 -0.08613,0.0556 -0.226029,0.0766 -0.310901,0.0466 -0.08486,-0.03 -0.233034,0.004 -0.329271,0.0752 -0.09624,0.0714 -0.331566,0.0988 -0.522977,0.0613 -0.191514,-0.0371 -0.41372,-0.0264 -0.494031,0.025 -0.253994,0.16218 -1.272331,0.26444 -1.37518,0.13806 -0.05426,-0.0667 -0.172019,-0.042 -0.261766,0.055 -0.08974,0.0968 -0.320016,0.12065 -0.511772,0.053 -0.191762,-0.0678 -0.415391,-0.051 -0.496952,0.037 -0.08156,0.088 -0.428576,0.10703 -0.771129,0.0421 -0.342605,-0.0647 -0.644903,-0.0617 -0.67188,0.007 -0.02701,0.0687 -0.259202,0.0969 -0.516056,0.063 -0.256868,-0.0339 -0.487432,-0.009 -0.512401,0.0537 -0.02496,0.0636 -0.255554,0.0876 -0.512397,0.0537 -0.256861,-0.034 -0.487426,-0.009 -0.512401,0.0537 -0.03815,0.0971 -0.783283,0.0752 -1.179773,-0.0348 -0.06381,-0.0181 -0.193056,0.025 -0.287035,0.0946 -0.094,0.0697 -0.410106,0.0838 -0.702466,0.0314 -0.29234,-0.0526 -0.62572,-0.0432 -0.740803,0.0203 -0.115083,0.0637 -0.346418,0.0895 -0.514083,0.0578 -0.167703,-0.0316 -0.416218,0.008 -0.552344,0.0888 -0.13612,0.0808 -0.284309,0.11768 -0.329299,0.0821 -0.137898,-0.1089 -1.212951,-0.0507 -1.2597,0.0682 -0.0241,0.0613 -0.137745,0.0785 -0.25246,0.0379 -0.114715,-0.0405 -0.290727,-0.0147 -0.391141,0.0575 -0.100412,0.0723 -0.397608,0.15632 -0.660449,0.18694 -0.262848,0.0306 -0.690859,0.2136 -0.951143,0.40664 -0.2603,0.19304 -0.554675,0.3222 -0.654168,0.28703 -0.09949,-0.0351 -0.315336,0.0646 -0.479655,0.22155 -0.164324,0.15701 -0.390301,0.25314 -0.502175,0.2136 -0.111896,-0.0395 -0.277107,0.007 -0.367168,0.10489 -0.09005,0.0971 -0.26285,0.14177 -0.383977,0.0988 -0.121129,-0.0426 -0.246148,-0.0119 -0.277844,0.0688 -0.03271,0.0832 -0.165201,0.0665 -0.306178,-0.0388 -0.136705,-0.10197 -0.394922,-0.166 -0.573787,-0.14257 -0.237366,0.0311 -0.386963,-0.0429 -0.553788,-0.27436 z"
       id="path826" />
    <path
       style="opacity:0.98;fill:#ffffff;fill-opacity:1;stroke:#b8db7c;stroke-width:0.714286;stroke-opacity:0"
       d=""
       id="path855"
       transform="scale(0.26458333)" />
    <path
       id="path859"
       style="opacity:0.98;fill:#ffffff;fill-opacity:1;stroke:#b8db7c;stroke-width:0.19003;stroke-opacity:0"
       d="m 407.82422,268.29102 c -3.88594,-0.10632 -5.6651,0.63497 -8.99414,3.31445 -2.19025,1.76289 -2.03501,1.91707 2.73437,2.69336 1.57143,0.25577 5.1402,1.5569 7.93164,2.89062 6.17078,2.94833 12.69907,9.53918 15.3125,15.46094 l 1.74805,3.96289 0.89648,-2.13086 c 1.0762,-2.55951 1.16842,-8.52901 0.1836,-11.96289 -0.39246,-1.36842 -1.84538,-4.13236 -3.22852,-6.14062 -3.40111,-4.93826 -8.17791,-7.52181 -14.77929,-7.99414 -0.65172,-0.0466 -1.24956,-0.0786 -1.80469,-0.0937 z" />
    <path
       style="fill:none;stroke:#333333;stroke-width:0.810997px;stroke-linecap:butt;stroke-linejoin:miter;stroke-opacity:1"
       d="m 135.78975,153.15614 c 0,0 60.98078,-19.13355 51.30204,-85.776644"
       id="path1017-1-8" />
    <path
       style="fill:none;stroke:#333333;stroke-width:0.641896px;stroke-linecap:butt;stroke-linejoin:miter;stroke-opacity:1"
       d="m 133.10329,141.83231 c 0,0 50.86443,-15.70739 44.27549,-66.006036"
       id="path1017-9-4-9" />
    <path
       style="fill:none;stroke:#333333;stroke-width:0.469882px;stroke-linecap:butt;stroke-linejoin:miter;stroke-opacity:1"
       d="m 133.42841,130.1172 c 0,0 36.99667,-11.44624 32.07848,-48.479089"
       id="path1017-9-3-66-2" />
    <path
       style="fill:none;stroke:#333333;stroke-width:0.366942px;stroke-linecap:butt;stroke-linejoin:miter;stroke-opacity:1"
       d="m 130.83544,120.94102 c 0,0 28.2244,-8.7935 24.1114,-38.331835"
       id="path1017-9-3-6-5-1" />
    <path
       style="fill:none;stroke:#333333;stroke-width:0.810997px;stroke-linecap:butt;stroke-linejoin:miter;stroke-opacity:1"
       d="m 68.267699,7.6888555 c 0,0 -57.802798,26.4833745 -38.961371,91.3617655"
       id="path1017-1-8-3" />
    <path
       style="fill:none;stroke:#333333;stroke-width:0.641896px;stroke-linecap:butt;stroke-linejoin:miter;stroke-opacity:1"
       d="m 72.502121,18.584453 c 0,0 -48.248627,21.840094 -34.738024,70.89506"
       id="path1017-9-4-9-3" />
    <path
       style="fill:none;stroke:#333333;stroke-width:0.469882px;stroke-linecap:butt;stroke-linejoin:miter;stroke-opacity:1"
       d="m 73.805096,30.239055 c 0,0 -35.09108,15.906728 -25.077337,52.01565"
       id="path1017-9-3-66-2-3" />
    <path
       style="fill:none;stroke:#333333;stroke-width:0.366942px;stroke-linecap:butt;stroke-linejoin:miter;stroke-opacity:1"
       d="m 77.648858,39.016973 c 0,0 -26.762131,12.195814 -18.586417,40.973786"
       id="path1017-9-3-6-5-1-0" />
    <flowRoot
       xml:space="preserve"
       id="flowRoot1184"
       style="font-style:normal;font-weight:normal;font-size:40px;line-height:1.25;font-family:sans-serif;letter-spacing:0px;word-spacing:0px;fill:#000000;fill-opacity:1;stroke:none"><flowRegion
         id="flowRegion1186"><rect
           id="rect1188"
           width="289.91379"
           height="68.690376"
           x="437.39606"
           y="592.18958" /></flowRegion><flowPara
         id="flowPara1190" /></flowRoot>
    <flowRoot
       xml:space="preserve"
       id="flowRoot837"
       style="font-style:normal;font-variant:normal;font-weight:normal;font-stretch:normal;font-size:64px;line-height:1.25;font-family:'Bauhaus 93';-inkscape-font-specification:'Bauhaus 93, ';letter-spacing:0px;word-spacing:0px;fill:#005400;fill-opacity:1;stroke:none"
       transform="matrix(0.3042627,0,0,0.27652595,-18.234921,-17.756084)"><flowRegion
         id="flowRegion839"
         style="font-style:normal;font-variant:normal;font-weight:normal;font-stretch:normal;font-size:64px;font-family:'Bauhaus 93';-inkscape-font-specification:'Bauhaus 93, ';fill:#005400;fill-opacity:1"><rect
           id="rect841"
           width="334.3605"
           height="72.73098"
           x="412.14224"
           y="605.32159"
           style="font-style:normal;font-variant:normal;font-weight:normal;font-stretch:normal;font-size:64px;font-family:'Bauhaus 93';-inkscape-font-specification:'Bauhaus 93, ';fill:#005400;fill-opacity:1;" /></flowRegion><flowPara
         id="flowPara843">Access</flowPara></flowRoot>
    <flowRoot
       xml:space="preserve"
       id="flowRoot845"
       style="font-style:normal;font-weight:normal;font-size:40px;line-height:1.25;font-family:sans-serif;letter-spacing:0px;word-spacing:0px;fill:#333333;fill-opacity:1;stroke:none"
       transform="matrix(0.46620338,0,0,0.4561726,56.881366,-82.518097)"><flowRegion
         id="flowRegion847"
         style="fill:#333333"><rect
           id="rect849"
           width="237.38585"
           height="56.568542"
           x="142.4315"
           y="537.64136"
           style="fill:#333333" /></flowRegion><flowPara
         id="flowPara851"
         style="font-style:normal;font-variant:normal;font-weight:normal;font-stretch:normal;font-size:40.255px;font-family:'Bauhaus 93';-inkscape-font-specification:'Bauhaus 93, ';fill:#333333">Control</flowPara></flowRoot>
    <rect
       style="font-variation-settings:'wdth' 100, 'wght' 400;fill:none;stroke-width:0.262709"
       id="rect1268"
       width="196.9256"
       height="183.31847"
       x="7.1815472"
       y="4.5357141" />
  </g>
</svg>
