<?xml version="1.0" encoding="UTF-8" standalone="no"?>
<!-- Created with Inkscape (http://www.inkscape.org/) -->

<svg
   xmlns:dc="http://purl.org/dc/elements/1.1/"
   xmlns:cc="http://creativecommons.org/ns#"
   xmlns:rdf="http://www.w3.org/1999/02/22-rdf-syntax-ns#"
   xmlns:svg="http://www.w3.org/2000/svg"
   xmlns="http://www.w3.org/2000/svg"
   xmlns:sodipodi="http://sodipodi.sourceforge.net/DTD/sodipodi-0.dtd"
   xmlns:inkscape="http://www.inkscape.org/namespaces/inkscape"
   width="210mm"
   height="297mm"
   viewBox="0 0 210 297"
   version="1.1"
   id="svg8"
   inkscape:version="0.92.4 (5da689c313, 2019-01-14)"
   sodipodi:docname="logo.svg">
  <defs
     id="defs2" />
  <sodipodi:namedview
     id="base"
     pagecolor="#ffffff"
     bordercolor="#666666"
     borderopacity="1.0"
     inkscape:pageopacity="0.0"
     inkscape:pageshadow="2"
     inkscape:zoom="0.98994949"
     inkscape:cx="565.36718"
     inkscape:cy="778.34366"
     inkscape:document-units="mm"
     inkscape:current-layer="layer1"
     showgrid="false"
     inkscape:window-width="1920"
     inkscape:window-height="1001"
     inkscape:window-x="2391"
     inkscape:window-y="-9"
     inkscape:window-maximized="1" />
  <metadata
     id="metadata5">
    <rdf:RDF>
      <cc:Work
         rdf:about="">
        <dc:format>image/svg+xml</dc:format>
        <dc:type
           rdf:resource="http://purl.org/dc/dcmitype/StillImage" />
        <dc:title />
      </cc:Work>
    </rdf:RDF>
  </metadata>
  <g
     inkscape:label="Capa 1"
     inkscape:groupmode="layer"
     id="layer1">
    <path
       style="opacity:0.92000002;fill:#005400;fill-opacity:1;stroke:#b8db7c;stroke-width:0.13756786;stroke-opacity:0"
       d="m 119.43637,106.71427 c -0.31559,-0.15956 -0.44892,-0.34916 -0.53189,-0.75647 -0.10091,-0.49544 -0.073,-0.62987 0.31583,-1.51854 0.23457,-0.53624 0.51628,-1.14796 0.62603,-1.35938 0.44086,-0.84921 1.14895,-2.50078 1.36764,-3.189888 0.12747,-0.401857 0.30804,-0.8428 0.40116,-0.979885 0.0931,-0.137083 0.32605,-0.726514 0.51765,-1.309845 0.19161,-0.583332 0.49288,-1.476793 0.66949,-1.98547 0.72555,-2.089768 1.42119,-4.877416 2.1146,-8.473894 0.72228,-3.7487 0.88867,-5.206069 0.74603,-6.553187 -0.0377,-0.356272 -0.0703,-0.870181 -0.0724,-1.142018 -0.002,-0.271851 -0.0371,-0.564131 -0.0778,-0.649548 -0.0406,-0.08541 -0.0818,-0.34568 -0.0914,-0.578363 -0.0489,-1.181227 -1.26148,-4.832117 -2.22822,-6.709013 -0.3157,-0.612932 -2.10487,-3.311612 -2.52476,-3.808213 -0.87824,-1.03867 -3.32447,-3.386602 -3.57988,-3.436023 -0.0451,-0.0087 -0.33498,-0.200342 -0.64436,-0.425845 -0.88233,-0.643122 -1.00671,-0.723185 -1.80897,-1.164454 -2.44831,-1.346652 -2.83429,-1.477327 -6.40345,-2.167933 -3.07173,-0.594355 -3.46852,-0.64309 -4.69238,-0.576368 -0.73531,0.04009 -1.46752,0.100205 -1.62715,0.133588 -0.15963,0.03338 -0.54603,0.08734 -0.85866,0.119894 -0.31264,0.03256 -0.97736,0.162162 -1.477171,0.288006 -0.499805,0.125845 -0.936688,0.223404 -0.970856,0.216792 -0.222156,-0.04298 -3.632645,1.292416 -4.462577,1.747354 -0.608576,0.333602 -3.654357,2.446531 -4.025846,2.792826 -0.230656,0.215019 -0.58837,0.535665 -0.794907,0.712549 -0.206539,0.176884 -0.38763,0.38413 -0.402416,0.46055 -0.01479,0.07642 -0.08111,0.149603 -0.147365,0.162632 -0.505661,0.09941 -3.686231,4.537732 -3.846913,5.368163 -0.02183,0.112843 -0.118596,0.300082 -0.215031,0.416084 -0.241285,0.290248 -1.280391,2.994702 -1.412036,3.675062 -0.0771,0.39845 -0.227991,0.653526 -0.535714,0.905607 -0.370389,0.303419 -0.516901,0.333809 -1.082121,0.224443 -0.54012,-0.104509 -0.700464,-0.202677 -0.922657,-0.564841 -0.14791,-0.241089 -0.25902,-0.500529 -0.246913,-0.576525 0.01216,-0.076 -0.04735,-0.405407 -0.132124,-0.732017 -0.08477,-0.326602 -0.138807,-0.686032 -0.12007,-0.798734 0.01875,-0.112695 -0.01872,-0.385338 -0.08324,-0.605862 -0.06452,-0.220521 -0.122006,-0.610265 -0.127751,-0.866095 -0.0058,-0.255829 -0.04264,-0.568631 -0.08199,-0.695115 -0.100898,-0.32436 -0.187522,-2.565962 -0.113869,-2.946613 0.07869,-0.406683 0.926762,-2.181739 1.312937,-2.748037 1.203881,-1.765411 3.240296,-4.178017 4.348011,-5.151229 0.217011,-0.190661 0.450978,-0.400202 0.519924,-0.465644 1.317934,-1.250979 4.016631,-3.082386 6.048575,-4.104722 0.339373,-0.170752 0.686463,-0.345369 0.771301,-0.388042 0.53575,-0.269465 3.646099,-1.446451 3.762792,-1.423872 0.02798,0.0054 0.531773,-0.115261 1.119519,-0.268169 1.108565,-0.288402 2.006903,-0.454565 2.857652,-0.528559 0.27263,-0.02371 0.62712,-0.07473 0.78777,-0.113363 0.16064,-0.03864 0.82933,-0.09424 1.48597,-0.123557 4.38136,-0.195633 8.75858,0.651325 12.75075,2.467175 0.5983,0.27214 1.19798,0.573161 1.33262,0.668932 0.13464,0.09577 0.445,0.272852 0.6897,0.393509 0.75102,0.370327 2.58903,1.627199 3.67734,2.514649 0.9336,0.761301 2.48025,2.173543 2.61479,2.387571 0.0293,0.04657 0.34657,0.409698 0.7051,0.806938 1.84696,2.046364 3.85413,5.323827 4.9736,8.121256 0.50189,1.254189 1.21633,3.652594 1.1658,3.913696 -0.0193,0.09957 0.0205,0.191795 0.0885,0.204949 0.0679,0.01315 0.12707,0.2308 0.13136,0.483669 0.004,0.252859 0.0415,0.529737 0.0827,0.615263 0.0412,0.08552 0.10006,0.414162 0.13079,0.730311 0.0307,0.316143 0.0847,0.707285 0.11985,0.869193 0.16816,0.773824 0.24525,2.707621 0.19543,4.902344 -0.0251,1.104721 -1.50062,8.673533 -2.10591,10.802086 -0.58852,2.06971 -1.40146,4.586925 -1.92352,5.956068 -0.24457,0.641404 -0.47793,1.338044 -0.51858,1.548104 -0.0406,0.21005 -0.13366,0.40497 -0.20678,0.43315 -0.0731,0.0282 -0.24367,0.39253 -0.37908,0.80966 -0.66728,2.05554 -2.41684,3.48189 -4.96291,4.04608 -1.12619,0.24955 -1.477,0.24729 -1.99158,-0.0128 z"
       id="path839"
       inkscape:connector-curvature="0" />
    <path
       style="opacity:0.92000002;fill:#005400;fill-opacity:1;stroke:#b8db7c;stroke-width:0.13756786;stroke-opacity:0"
       d="m 136.40288,97.449094 c -0.2768,-0.212877 -0.49846,-0.458797 -0.49258,-0.546495 0.006,-0.08769 0.57956,-3.158442 1.27494,-6.823863 0.80204,-4.228235 1.2543,-6.898285 1.23722,-7.304146 -0.0148,-0.35185 -0.0171,-1.050242 -0.005,-1.551978 0.0121,-0.501729 -0.0104,-1.045427 -0.0501,-1.208201 -0.0397,-0.162782 -0.0712,-0.676476 -0.0701,-1.141561 0.001,-0.465078 -0.033,-0.915843 -0.0758,-1.001681 -0.0429,-0.08585 -0.0806,-0.378673 -0.0839,-0.650745 -0.003,-0.27208 -0.0393,-0.564563 -0.08,-0.649981 -0.0406,-0.08541 -0.0813,-0.336825 -0.0904,-0.558687 -0.0397,-0.969809 -1.15211,-5.130194 -1.8686,-6.988426 -1.07554,-2.789399 -3.16181,-6.474807 -4.86216,-8.589011 -0.36345,-0.451921 -0.71558,-0.898903 -0.7825,-0.993295 -0.14337,-0.202206 -1.14535,-1.302103 -1.96535,-2.157403 -1.13373,-1.182538 -3.51664,-3.169637 -5.0357,-4.199244 -0.13541,-0.09179 -0.50357,-0.341176 -0.81814,-0.554217 -0.31456,-0.21304 -0.76604,-0.470448 -1.00326,-0.572019 -0.23724,-0.101567 -0.48427,-0.247718 -0.54895,-0.324769 -0.12526,-0.149191 -0.66836,-0.422819 -2.21532,-1.116127 -0.52855,-0.236882 -1.04424,-0.486224 -1.14598,-0.554091 -0.10174,-0.06787 -0.62568,-0.274608 -1.1643,-0.459422 -0.53862,-0.184816 -1.36027,-0.47205 -1.8259,-0.638302 -1.09603,-0.391333 -6.21913,-1.382614 -7.38202,-1.428365 -0.49403,-0.01943 -1.36352,-0.05943 -1.93221,-0.08886 -0.56869,-0.02944 -1.13192,-0.03306 -1.25164,-0.008 -0.11971,0.02501 -0.69119,0.064 -1.26995,0.08662 -1.69392,0.06622 -2.29989,0.117515 -2.47176,0.209213 -0.0888,0.04736 -0.37248,0.09081 -0.630469,0.09656 -0.258001,0.0058 -0.772905,0.07617 -1.144234,0.156495 -0.371328,0.08033 -0.805596,0.172552 -0.965028,0.20495 -1.575085,0.320059 -4.780068,1.36012 -6.240046,2.024976 -0.419922,0.191227 -0.990173,0.44693 -1.267227,0.568227 -1.348998,0.590605 -2.86292,1.488921 -4.933504,2.927396 -1.76698,1.227556 -1.909241,1.29862 -2.406946,1.202318 -0.673243,-0.130267 -1.120045,-0.637286 -1.115055,-1.265329 0.0049,-0.613976 1.012928,-4.278045 1.215053,-4.416486 0.08533,-0.05844 0.17357,-0.201539 0.196104,-0.317999 0.14635,-0.756358 1.747827,-2.095356 3.571537,-2.986171 0.507466,-0.247879 1.005775,-0.498057 1.107352,-0.555954 0.599301,-0.341582 3.004662,-1.327264 4.017986,-1.646513 0.428338,-0.134948 0.814914,-0.270099 0.859055,-0.300333 0.108516,-0.07433 2.404414,-0.704606 3.308736,-0.908331 0.400368,-0.0902 0.924616,-0.208909 1.16499,-0.263805 0.240373,-0.0549 0.855063,-0.155299 1.365987,-0.223113 0.510915,-0.06782 1.060646,-0.156314 1.221622,-0.196659 0.284287,-0.07125 1.093507,-0.141335 2.832337,-0.245303 1.49441,-0.08936 3.5917,-0.05429 5.066,0.08469 0.78972,0.07445 2.14819,0.203306 3.01879,0.286349 1.15548,0.110217 1.98904,0.2718 3.0868,0.598494 0.82714,0.246062 2.09652,0.62295 2.82083,0.837535 1.40207,0.415377 3.53942,1.229432 4.79839,1.827565 1.6243,0.771698 2.30093,1.114725 2.5361,1.285723 0.2611,0.189851 1.12873,0.710603 1.74472,1.047175 0.20674,0.112972 0.56925,0.344411 0.80556,0.514318 0.23631,0.169907 0.6777,0.484243 0.98087,0.698524 0.87908,0.621347 2.36794,1.761677 2.42543,1.857647 0.0289,0.04833 0.35135,0.325087 0.71645,0.615023 0.36511,0.289937 0.68612,0.573944 0.71335,0.631119 0.0272,0.05717 0.31759,0.337641 0.64525,0.623257 0.32765,0.285612 0.61895,0.561186 0.64734,0.612384 0.0284,0.0512 0.28797,0.328817 0.57685,0.616928 0.28888,0.28811 0.54941,0.560781 0.57897,0.605935 0.0296,0.04516 0.33743,0.396977 0.68419,0.781832 1.60447,1.780821 4.31399,5.827897 5.51909,8.243595 0.8353,1.674423 1.9444,4.277778 1.90631,4.474632 -0.0105,0.0541 0.049,0.212322 0.13217,0.351629 0.16023,0.268413 1.35055,4.407759 1.40207,4.875746 0.0167,0.151605 0.11358,0.672446 0.21532,1.157434 0.10173,0.484986 0.1752,0.933768 0.16327,0.997288 -0.0119,0.06354 0.0244,0.324358 0.0807,0.579627 0.14521,0.657806 0.30664,2.234949 0.29671,2.898738 -0.005,0.309324 0.0247,0.632225 0.0651,0.717597 0.0404,0.08537 0.0554,0.468968 0.0332,0.852437 -0.022,0.383486 -0.0177,0.901326 0.01,1.150791 0.15793,1.429532 -0.43392,6.804825 -1.00861,9.16052 -0.43966,1.802161 -0.76809,2.409244 -2.07896,3.842928 -0.48505,0.530491 -0.89183,1.015754 -0.90394,1.078349 -0.0121,0.06264 -0.0713,0.125433 -0.13145,0.139651 -0.0602,0.01416 -0.48001,0.398277 -0.93291,0.853494 -1.18587,1.191891 -1.22349,1.220161 -1.78186,1.338662 -0.46618,0.09895 -0.54856,0.07618 -1.01082,-0.279319 z"
       id="path841"
       inkscape:connector-curvature="0" />
    <path
       style="opacity:0.92000002;fill:#005400;fill-opacity:1;stroke:#005400;stroke-width:0.13756786;stroke-opacity:0"
       d="m 149.80254,73.131852 c -0.34843,-0.334897 -0.51241,-0.754742 -0.80399,-2.058453 -0.24265,-1.084959 -0.80933,-3.247691 -0.87565,-3.341947 -0.0316,-0.0449 -0.14077,-0.383267 -0.24263,-0.751953 -0.46691,-1.689954 -2.60624,-6.633306 -3.47701,-8.034295 -0.0936,-0.150655 -0.52512,-0.868648 -0.95886,-1.595541 -0.84627,-1.418272 -2.52768,-3.842028 -3.42228,-4.93323 -0.30225,-0.368686 -0.60336,-0.746726 -0.66911,-0.840089 -0.52328,-0.743035 -3.65704,-3.978355 -4.47923,-4.624398 -0.1662,-0.130591 -0.32447,-0.284147 -0.35171,-0.341241 -0.0825,-0.172899 -3.25075,-2.666888 -4.10884,-3.234416 -0.44113,-0.291754 -0.9123,-0.608304 -1.04706,-0.703448 -0.80298,-0.56692 -1.46263,-0.990812 -1.57605,-1.012757 -0.0718,-0.01389 -0.30441,-0.146516 -0.51706,-0.294738 -0.54794,-0.381954 -1.93138,-1.122126 -2.54268,-1.36041 -0.28486,-0.111025 -0.56908,-0.261277 -0.63162,-0.333876 -0.0625,-0.0726 -0.34732,-0.219948 -0.63286,-0.327443 -0.28553,-0.107499 -0.71187,-0.298794 -0.94741,-0.425108 -0.70355,-0.377291 -3.21939,-1.262618 -5.98268,-2.105312 -2.5851,-0.788355 -9.0404,-1.791488 -10.50532,-1.632502 -0.23468,0.02547 -0.79669,0.01554 -1.24892,-0.02206 -0.45223,-0.0376 -1.14029,-0.04379 -1.52902,-0.01375 -0.38873,0.03004 -0.97116,0.04634 -1.29427,0.03621 -0.32313,-0.01013 -0.63238,0.03082 -0.68724,0.09101 -0.0549,0.06018 -0.23202,0.08355 -0.3937,0.05193 -0.26315,-0.05151 -2.260693,0.12178 -3.001072,0.260305 -1.855475,0.347157 -2.272802,0.411878 -2.443213,0.378905 -0.109271,-0.02114 -0.209221,0.01609 -0.222117,0.08274 -0.0129,0.06665 -0.191361,0.130887 -0.396581,0.142751 -0.205223,0.01187 -1.129275,0.22065 -2.053448,0.463965 -1.977256,0.520569 -2.463974,0.485456 -2.928452,-0.21127 -0.517978,-0.776976 -0.294455,-1.394618 1.076653,-2.97504 0.709945,-0.818325 0.690697,-0.802125 2.241938,-1.886856 1.275339,-0.891801 2.904497,-1.627938 3.842887,-1.736416 0.18132,-0.02097 0.367707,-0.07281 0.414212,-0.115219 0.08115,-0.07402 1.164328,-0.202586 2.351521,-0.279112 0.310202,-0.01999 0.695012,-0.06576 0.855142,-0.101701 0.28897,-0.06486 1.42641,-0.104816 3.43481,-0.120649 5.38014,-0.04242 11.89618,1.033696 17.00141,2.807758 2.44654,0.85017 5.47079,2.097183 5.83346,2.405358 0.1142,0.09704 0.28402,0.19094 0.37736,0.208656 0.1752,0.03331 2.12411,1.053546 2.56203,1.341285 0.1359,0.08928 0.61312,0.375538 1.06049,0.636112 0.44738,0.260576 0.97933,0.587819 1.18211,0.727206 0.20278,0.139391 0.73022,0.489887 1.1721,0.778893 0.85077,0.556443 4.28176,3.167834 4.3693,3.325561 0.0284,0.05117 0.32882,0.331365 0.66762,0.622682 1.31529,1.130957 2.15112,1.916946 2.92635,2.751876 0.44365,0.477799 0.93803,0.999154 1.09865,1.158572 0.16061,0.159413 0.31596,0.328028 0.34522,0.374698 0.0293,0.04667 0.25979,0.312516 0.51229,0.590773 0.25249,0.278253 0.51693,0.582862 0.58761,0.676899 0.0707,0.09405 0.34351,0.434654 0.60622,0.756914 0.26274,0.322263 0.53213,0.659915 0.59865,0.750338 0.0665,0.09043 0.61272,0.83061 1.21376,1.644861 1.77477,2.404316 4.0113,6.262442 5.20721,8.982698 1.82865,4.159453 1.97915,5.434006 1.18264,10.014904 -0.52544,3.021923 -0.65284,3.326614 -1.52396,3.629922 -0.55034,0.191787 -0.79414,0.136074 -1.2276,-0.280544 z"
       id="path843"
       inkscape:connector-curvature="0" />
    <path
       style="opacity:0.92000002;fill:#005400;fill-opacity:1;stroke:#b8db7c;stroke-width:0.13756786;stroke-opacity:0"
       d="m 148.30889,42.284058 c -0.10242,-0.06435 -0.46899,-0.436706 -0.81459,-0.827454 -1.1833,-1.337852 -3.96717,-4.083569 -4.18257,-4.125248 -0.0784,-0.01518 -0.15284,-0.08307 -0.16526,-0.150855 -0.0533,-0.291145 -5.47666,-4.52142 -6.39198,-4.985813 -0.17435,-0.08845 -0.48196,-0.279748 -0.68359,-0.42509 -0.20163,-0.145344 -0.70302,-0.468564 -1.11421,-0.718271 -0.41119,-0.249708 -0.85925,-0.524764 -0.99568,-0.611237 -0.49473,-0.313561 -1.51502,-0.870249 -2.01515,-1.099501 -0.28139,-0.128982 -0.62137,-0.314847 -0.75555,-0.413041 -0.33054,-0.24191 -1.74066,-0.910107 -2.61475,-1.23902 -0.39262,-0.147747 -0.79702,-0.337464 -0.89868,-0.421606 -0.10165,-0.08414 -0.50628,-0.259758 -0.89919,-0.39026 -0.3929,-0.130506 -0.94371,-0.347325 -1.22403,-0.481825 -0.52918,-0.253906 -2.65152,-0.957173 -5.03787,-1.669355 -0.84675,-0.252709 -3.20839,-0.732255 -6.09606,-1.237855 -2.59261,-0.45394 -4.89199,-0.860841 -5.10974,-0.904237 -0.62714,-0.125014 -0.97471,-0.768828 -0.81501,-1.50978 0.18778,-0.871107 0.21315,-0.885708 3.03595,-1.744215 0.12406,-0.03773 0.52071,-0.136666 0.88143,-0.219852 0.36072,-0.08319 0.88565,-0.205405 1.1665,-0.271596 0.62715,-0.147801 1.63678,-0.308656 2.29876,-0.366232 0.27263,-0.02371 0.62754,-0.07686 0.78869,-0.118104 1.32871,-0.340067 5.94289,0.644204 9.89558,2.110868 2.21401,0.821519 3.63253,1.378796 3.8175,1.499739 0.10198,0.06668 0.50356,0.258047 0.89242,0.425273 1.20976,0.520248 2.35533,1.08608 2.57199,1.270384 0.11418,0.09714 0.28397,0.191105 0.37732,0.208821 0.22753,0.04321 2.21533,1.113929 2.7004,1.454598 0.21246,0.149208 0.47078,0.287634 0.57404,0.307615 0.10326,0.01998 0.23473,0.101204 0.29214,0.180494 0.0574,0.07929 0.33182,0.264079 0.60981,0.410643 0.47907,0.252587 0.64616,0.361256 1.66967,1.085876 0.23575,0.166906 0.81469,0.575109 1.28653,0.907119 0.74028,0.520889 2.53008,2.02334 2.8749,2.413324 1.91515,2.16606 3.23749,3.988562 4.1223,5.681495 0.19561,0.374288 0.40234,0.763203 0.45937,0.864254 0.1476,0.261519 0.84314,1.741321 1.28752,2.739302 0.51028,1.145927 0.39769,1.882041 -0.35782,2.339344 -0.49562,0.300016 -0.98632,0.310746 -1.4311,0.0313 z"
       id="path845"
       inkscape:connector-curvature="0" />
    <path
       style="opacity:0.92000002;fill:#005400;fill-opacity:1;stroke:#b8db7c;stroke-width:0.13756786;stroke-opacity:0"
       d="m 105.43637,106.38199 c -0.55306,-0.3313 -0.89026,-1.28104 -0.57608,-1.62254 0.11803,-0.12836 0.22982,-0.31154 0.24831,-0.40711 0.0185,-0.0955 0.19858,-0.3786 0.40019,-0.62897 0.2016,-0.25037 0.38345,-0.5315 0.40409,-0.62473 0.0211,-0.0931 0.20155,-0.39156 0.40204,-0.66297 0.20049,-0.27141 0.38659,-0.5965 0.41355,-0.72241 0.0274,-0.12584 0.10996,-0.25243 0.18438,-0.28114 0.0744,-0.0287 0.27331,-0.35882 0.44193,-0.73357 0.16866,-0.37474 0.37129,-0.764027 0.45036,-0.86505 0.17237,-0.22021 0.5466,-0.999238 1.11555,-2.322168 0.23091,-0.536943 0.46919,-1.030167 0.52948,-1.096056 0.0603,-0.06587 0.21602,-0.448178 0.34602,-0.849552 0.13002,-0.401371 0.33055,-0.907375 0.44564,-1.124449 0.2599,-0.490211 1.13068,-3.237175 1.78621,-5.634744 0.71812,-2.626554 1.8579,-7.21834 1.72252,-8.056861 -0.44827,-2.776878 1.20989,-8.54606 -0.71235,-9.9653 -2.57048,-1.89785 -9.37532,1.082816 -12.28367,2.252425 -1.195576,0.480806 -2.869489,1.681056 -3.652797,2.619166 -1.186503,1.421 -2.862333,1.695804 -3.511406,4.373896 -0.751128,3.099175 -2.315924,1.476266 -2.790134,2.635795 -0.205731,0.503043 -2.678668,1.179193 -2.800446,1.543385 -0.121751,0.364189 0.590479,-0.721943 0.521131,-0.657814 -0.583832,0.785999 -3.315229,1.873878 -3.16296,3.882541 -1.766461,-0.692068 -4.181774,5.036533 -5.189924,3.496956 -0.606643,-0.926427 1.537831,-2.161046 1.648425,-2.744682 0.03554,-0.187515 3.312231,-1.510704 3.443277,-1.756258 1.225585,-2.296742 3.015476,-3.12144 3.592121,-5.985191 0.711312,-3.532625 1.358484,-5.251976 2.745476,-7.294319 1.959032,-2.88466 4.989197,-5.107923 8.258854,-6.059608 1.459573,-0.424831 2.345873,-0.60528 2.941533,-0.598882 0.28331,0.003 0.58604,-0.03146 0.67272,-0.07666 0.0867,-0.0452 0.93184,-0.0075 1.87812,0.08385 1.32485,0.127856 2.09214,0.276327 3.33652,0.645618 0.88881,0.263769 1.7041,0.550067 1.81176,0.636224 0.10766,0.08616 0.66214,0.415913 1.23218,0.732798 3.60396,2.003416 6.4341,5.941103 7.24049,10.073973 0.0865,0.443264 0.14748,0.857905 0.13555,0.921424 -0.0119,0.06354 0.0297,0.325384 0.0926,0.58192 0.12456,0.508296 0.11964,1.46791 -0.0174,3.394948 -0.0638,0.896907 -0.27263,1.979742 -0.74753,3.873882 -0.98356,3.926409 -1.6144,6.200968 -1.83895,6.630729 -0.11035,0.2113 -0.31046,0.743632 -0.44456,1.182985 -0.27742,0.908897 -1.22634,3.358192 -1.5245,3.935044 -0.10927,0.211508 -0.28174,0.590563 -0.38316,0.842365 -0.16368,0.40638 -0.66256,1.40914 -1.59973,3.21549 -1.44233,2.78005 -2.32538,3.7878 -3.46868,3.95851 -0.6191,0.0924 -3.19863,-0.42038 -3.73711,-0.74296 z"
       id="path847"
       inkscape:connector-curvature="0"
       sodipodi:nodetypes="cccccsccccccccccsccscccccccccscccsccccccccccccccc" />
    <path
       style="opacity:0.92000002;fill:#005400;fill-opacity:1;stroke:#b8db7c;stroke-width:0.13756786;stroke-opacity:0"
       d="m 96.578842,102.37898 c -0.164894,-0.13727 -0.684775,-0.52689 -1.155277,-0.86583 -1.158546,-0.83459 -1.580684,-1.32711 -1.592611,-1.858147 -0.01053,-0.468428 0.472576,-1.587956 0.668853,-1.549978 0.0642,0.01242 0.133616,-0.05346 0.154196,-0.146419 0.02093,-0.09289 0.20146,-0.391069 0.401952,-0.662482 0.200484,-0.271406 0.376611,-0.54499 0.391395,-0.607956 0.01512,-0.06288 0.152071,-0.290212 0.305078,-0.504978 0.40127,-0.563228 0.912161,-1.449868 1.180581,-2.048888 0.127955,-0.285441 0.312034,-0.630526 0.409162,-0.766836 0.241183,-0.338492 1.099087,-0.414753 1.617282,-1.830087 0.238637,-0.651779 1.334547,-1.18755 1.455377,-1.435597 0.30782,-0.631915 2.06823,0.42813 2.76278,-2.510305 0.32425,-1.37194 1.19906,-0.23482 1.29063,-0.372205 0.40146,-0.602294 3.0984,-3.105833 3.98382,-3.259468 0.94198,-0.163447 6.73886,-6.902056 7.54711,-6.394407 0.78782,0.494783 -2.83802,2.663473 -2.53885,3.465742 0.22402,0.600761 -1.61745,4.01434 -4.08427,6.137968 -3.26488,2.810649 -4.97001,5.1815 -6.28796,7.803688 -0.19538,0.388724 -0.51192,1.025428 -0.70345,1.414898 -0.43144,0.877392 -1.12363,2.104918 -1.48042,2.625378 -0.14791,0.215753 -0.27717,0.434949 -0.28726,0.487109 -0.0101,0.05214 -0.14165,0.270915 -0.2924,0.486118 -1.415292,2.020822 -1.829772,2.529932 -2.177607,2.674812 -0.460764,0.19192 -1.146954,0.0685 -1.568111,-0.28213 z"
       id="path849"
       inkscape:connector-curvature="0"
       sodipodi:nodetypes="cccccccccccccccccsccccccc" />
    <path
       style="opacity:0.98000004;fill:#333333;fill-opacity:1;stroke:#b8db7c;stroke-width:0.13756786;stroke-opacity:0"
       d="m 51.629879,177.92001 c -0.111936,-0.16475 -0.27424,-0.28512 -0.360673,-0.26749 -0.1904,0.0388 -0.783973,-0.67202 -0.649486,-0.77785 0.05233,-0.0412 0.01735,-0.19174 -0.07777,-0.33459 -0.184628,-0.27727 -0.216398,-1.15395 -0.04472,-1.23363 0.05667,-0.0263 0.0437,-0.0701 -0.02878,-0.0972 -0.07248,-0.0272 -0.04693,-0.20051 0.05677,-0.38516 0.103667,-0.18466 0.239015,-0.44983 0.300705,-0.58927 0.111063,-0.25109 1.741828,-1.68376 1.664923,-1.46271 -0.022,0.0632 0.357297,-0.0773 0.842825,-0.31206 0.485535,-0.2348 0.928329,-0.40985 0.983985,-0.38898 0.05562,0.0209 0.218641,-0.0535 0.362216,-0.16548 0.143565,-0.11189 0.299197,-0.15366 0.345849,-0.0928 0.04666,0.0608 0.150112,0.0362 0.230073,-0.0558 0.07989,-0.0915 0.233483,-0.13329 0.341333,-0.0928 0.107853,0.0404 0.21769,0.0152 0.244154,-0.0562 0.02641,-0.0714 0.136304,-0.0967 0.244153,-0.0562 0.107854,0.0404 0.252479,0.009 0.321398,-0.07 0.06891,-0.079 0.255921,-0.10559 0.415579,-0.0592 0.159641,0.0464 0.400958,0.0104 0.536237,-0.08 0.135286,-0.0904 0.22837,-0.11681 0.20687,-0.0588 -0.02147,0.0581 0.08163,0.0626 0.229181,0.0102 0.147554,-0.0524 0.383498,-0.0713 0.524314,-0.042 0.140828,0.0293 0.515327,0.0171 0.832272,-0.0273 0.316932,-0.0444 0.649115,-0.0533 0.73819,-0.0199 0.08907,0.0334 0.183339,0.003 0.209451,-0.0675 0.0261,-0.0705 0.28805,-0.0799 0.582048,-0.0208 0.294039,0.0589 0.59501,0.0381 0.668891,-0.0465 0.07391,-0.0846 0.277339,-0.10025 0.452111,-0.0347 0.174787,0.0655 0.403415,0.0456 0.508085,-0.0444 0.104667,-0.09 0.225727,-0.13929 0.269017,-0.1096 0.178504,0.12244 0.909001,0.16152 0.949958,0.051 0.02437,-0.0658 0.116458,-0.093 0.204717,-0.0605 0.0883,0.0323 0.835627,-0.02 1.660823,-0.11636 0.825187,-0.0964 1.535845,-0.12899 1.579236,-0.0724 0.04335,0.0566 0.144248,0.028 0.224131,-0.0635 0.07989,-0.0915 0.233474,-0.13329 0.341331,-0.0928 0.107853,0.0404 0.21769,0.0152 0.244154,-0.0562 0.02641,-0.0714 0.136305,-0.0967 0.244146,-0.0562 0.107854,0.0404 0.252488,0.009 0.321407,-0.07 0.06891,-0.079 0.255923,-0.1056 0.41558,-0.0592 0.15964,0.0464 0.400958,0.0104 0.536238,-0.08 0.135276,-0.0904 0.227663,-0.11491 0.205292,-0.0545 -0.02236,0.0603 0.113735,0.0473 0.302432,-0.0291 0.188702,-0.0764 0.32527,-0.0854 0.30348,-0.0199 -0.02181,0.0653 0.05698,0.0387 0.17502,-0.0592 0.118043,-0.098 0.263293,-0.15991 0.322766,-0.13759 0.05949,0.0223 0.358081,-0.0652 0.663564,-0.19455 0.305474,-0.12929 0.635756,-0.20497 0.733946,-0.16815 0.09819,0.0368 0.200145,0.009 0.226589,-0.0628 0.02641,-0.0714 0.112435,-0.10564 0.191095,-0.0761 0.07867,0.0295 0.453226,-0.0961 0.832354,-0.27904 0.379128,-0.18297 0.744973,-0.31179 0.813001,-0.28629 0.06799,0.0256 0.228624,-0.0473 0.35687,-0.16176 0.128246,-0.11447 0.313703,-0.17794 0.412119,-0.14104 0.09843,0.0369 0.258777,-0.036 0.356349,-0.16195 0.09761,-0.12598 0.257929,-0.19886 0.356347,-0.16195 0.0984,0.037 0.285347,-0.0279 0.415387,-0.14396 0.130048,-0.11608 0.276597,-0.15871 0.325673,-0.0947 0.04907,0.064 0.245178,-0.0269 0.435792,-0.20192 0.190617,-0.17503 0.4191,-0.29105 0.50775,-0.2578 0.08864,0.0332 0.329159,-0.0773 0.534471,-0.24557 0.205312,-0.1683 0.412889,-0.25438 0.461275,-0.19128 0.04843,0.063 0.295689,-0.0781 0.549554,-0.31381 0.253865,-0.2357 0.501625,-0.37629 0.550594,-0.31244 0.04894,0.0639 0.33966,-0.0908 0.64598,-0.34372 0.306319,-0.25288 0.626151,-0.43384 0.710721,-0.40213 0.08457,0.0317 0.443073,-0.183 0.796656,-0.47715 0.353592,-0.29417 0.693925,-0.50351 0.756295,-0.4652 0.06235,0.0383 0.559974,-0.29174 1.105791,-0.73344 0.545815,-0.4417 1.025551,-0.75985 1.066089,-0.70699 0.09838,0.12828 21.705365,-17.56124 21.881525,-17.91427 0.0757,-0.15161 0.27132,-0.39114 0.43483,-0.53227 0.16351,-0.14114 0.35367,-0.36847 0.42257,-0.50521 0.0688,-0.13677 0.22809,-0.40958 0.35379,-0.60631 0.7803,-1.22136 1.09839,-3.27485 0.59653,-3.85101 -0.10522,-0.12079 -0.16414,-0.293 -0.13094,-0.38265 0.0789,-0.21304 -2.1842,-3.03416 -2.39889,-2.99036 -0.0906,0.0184 -0.21278,-0.0516 -0.27169,-0.1557 -0.0589,-0.10408 -0.31287,-0.25231 -0.56433,-0.32938 -0.25145,-0.0771 -0.50603,-0.21425 -0.56571,-0.30489 -0.0623,-0.0947 -0.33451,-0.15538 -0.63993,-0.14246 -0.29226,0.0122 -0.51834,-0.013 -0.50236,-0.0562 0.0155,-0.0431 -0.11234,-0.0212 -0.28509,0.0488 -0.17278,0.0699 -0.33181,0.0878 -0.35339,0.0398 -0.0216,-0.048 -0.25474,0.0972 -0.51806,0.32269 -0.26333,0.22549 -0.55007,0.38324 -0.63718,0.35057 -0.0872,-0.0326 -0.5665,0.28636 -1.06529,0.70897 -0.498785,0.4226 -0.965741,0.7463 -1.037676,0.71933 -0.07189,-0.0269 -0.278606,0.0395 -0.459255,0.14766 -0.261884,0.15685 -0.494852,0.14356 -1.149523,-0.0656 -0.730056,-0.23323 -0.880078,-0.33709 -1.353435,-0.93589 -0.292804,-0.37047 -0.506048,-0.74463 -0.473887,-0.83147 0.03219,-0.0869 -0.02028,-0.25523 -0.116598,-0.37419 -0.09631,-0.11896 -0.133781,-0.20285 -0.08328,-0.18638 0.05041,0.0169 0.09685,-0.22417 0.102931,-0.53476 0.0068,-0.34785 0.0806,-0.61815 0.19202,-0.70392 0.09956,-0.0766 0.220896,-0.24443 0.269744,-0.37302 0.0491,-0.12849 1.218557,-1.1578 2.599328,-2.28714 1.38078,-1.12933 2.55241,-2.16595 2.60363,-2.30359 0.0512,-0.13766 0.4598,-0.54504 0.90795,-0.90536 0.44816,-0.3603 0.76739,-0.69561 0.70941,-0.74512 -0.058,-0.0495 0.0904,-0.24413 0.32975,-0.43248 0.78843,-0.6204 1.52154,-2.3007 1.46273,-3.35261 -0.0209,-0.37364 -0.0767,-0.71602 -0.12402,-0.76086 -0.0473,-0.0448 -0.056,-0.16278 -0.0192,-0.26205 0.0367,-0.0993 -0.074,-0.33762 -0.2461,-0.52966 -0.17212,-0.19203 -0.26438,-0.38736 -0.20503,-0.43407 0.13772,-0.10837 -1.23708,-1.84733 -1.42944,-1.80809 -0.079,0.0162 -0.29345,-0.15598 -0.47633,-0.38264 -0.18543,-0.2297 -0.52193,-0.46733 -0.76055,-0.53707 -0.23539,-0.0689 -0.47881,-0.19135 -0.54094,-0.27239 -0.0621,-0.0811 -0.36407,-0.15122 -0.67106,-0.15592 -0.306964,-0.005 -0.547031,-0.0385 -0.533492,-0.0751 0.04031,-0.10886 -0.967578,0.0798 -1.143819,0.21409 -0.08936,0.0681 -0.232183,0.0977 -0.317385,0.0657 -0.08518,-0.032 -0.272378,0.0335 -0.415945,0.14534 -0.143561,0.1119 -0.294318,0.16003 -0.33501,0.10697 -0.04077,-0.053 -0.871278,0.55805 -1.84573,1.35801 -0.974447,0.79997 -1.803914,1.41254 -1.843237,1.36126 -0.03929,-0.0513 -0.188979,-0.002 -0.332537,0.11021 -0.143565,0.11189 -0.330734,0.17729 -0.415934,0.14533 -0.08519,-0.032 -0.228388,-0.001 -0.31824,0.068 -0.08984,0.0694 -0.43076,0.0982 -0.757617,0.0641 -0.477259,-0.0498 -0.632656,-0.11834 -0.789061,-0.3487 -0.107136,-0.15769 -0.292091,-0.28552 -0.411013,-0.28409 -0.130155,0.002 -0.34896,-0.28107 -0.54982,-0.7103 -0.183478,-0.39211 -0.393875,-0.73553 -0.467549,-0.76316 -0.07368,-0.0276 -0.08618,-0.0724 -0.02776,-0.0995 0.05836,-0.0271 0.105488,-0.21239 0.104643,-0.41174 -0.003,-0.72756 0.146839,-1.17864 0.472149,-1.42097 0.177495,-0.13223 0.309512,-0.30816 0.29338,-0.39095 -0.01611,-0.0828 1.13064,-1.10221 2.548395,-2.26538 1.417762,-1.16316 2.631838,-2.22756 2.697951,-2.36534 0.06615,-0.13778 0.246532,-0.52252 0.400938,-0.85497 0.154397,-0.33246 0.324372,-0.62473 0.377709,-0.64949 0.05334,-0.0247 0.09488,-0.22187 0.09229,-0.43802 -0.0026,-0.21616 0.0231,-0.5156 0.05707,-0.66544 0.08777,-0.38696 0.0095,-1.5483 -0.107283,-1.59209 -0.05371,-0.0206 -0.07892,-0.0878 -0.05582,-0.15016 0.15528,-0.41923 -1.325902,-2.67713 -2.030202,-3.09481 -0.825302,-0.48945 -2.671974,-1.05023 -2.890968,-0.87792 -0.08509,0.067 -0.283215,0.095 -0.440258,0.0623 -0.157093,-0.0324 -0.406261,-0.0166 -0.553813,0.0358 -0.147554,0.0524 -0.251157,0.0437 -0.230255,-0.0193 0.02096,-0.0631 -0.05854,-0.0344 -0.176599,0.0635 -0.118045,0.098 -0.285097,0.15173 -0.371218,0.11943 -0.08613,-0.0323 -0.3409,0.10493 -0.566166,0.30496 -0.225267,0.20004 -0.479159,0.33759 -0.564208,0.3057 -0.08504,-0.0319 -1.231535,0.83238 -2.54776,1.92064 -1.316212,1.08822 -2.458983,1.95658 -2.539493,1.92966 -0.08046,-0.0271 -0.268076,0.0365 -0.416817,0.14103 -0.148743,0.10448 -0.477901,0.14987 -0.731474,0.10087 -0.253564,-0.049 -0.594333,-0.0705 -0.757231,-0.0478 -0.208129,0.029 -0.331891,-0.0217 -0.416253,-0.17078 -0.06602,-0.11665 -0.200236,-0.23022 -0.298233,-0.25239 -0.363429,-0.0822 -0.463562,-0.19566 -0.791545,-0.89655 -0.18454,-0.39435 -0.30807,-0.70671 -0.27452,-0.69413 0.03352,0.0126 0.06029,-0.14709 0.05949,-0.3548 -0.0028,-0.66081 0.147725,-1.21875 0.362461,-1.34385 0.114469,-0.0667 0.193838,-0.19468 0.176357,-0.28441 -0.01749,-0.0898 6.991968,-5.911317 15.57656,-12.936887 8.584612,-7.025573 15.622482,-12.850813 15.639742,-12.94497 0.0175,-0.09411 0.19625,-0.342149 0.39782,-0.551064 0.63955,-0.663011 0.90971,-1.072249 0.91117,-1.38021 7.8e-4,-0.16457 0.0765,-0.358293 0.16825,-0.43051 0.17194,-0.135293 0.22449,-0.84279 0.12215,-1.64468 -0.0319,-0.250006 -0.017,-0.486841 0.0332,-0.526312 0.0501,-0.03947 0.0174,-0.137537 -0.0726,-0.217927 -0.0901,-0.0804 -0.14376,-0.200221 -0.11928,-0.266282 0.1465,-0.395524 -1.43296,-2.824505 -1.95114,-3.000587 -0.10686,-0.03634 -0.26855,-0.131326 -0.3593,-0.211141 -0.36467,-0.320769 -1.64913,-0.77399 -2.13577,-0.75362 -0.27954,0.01172 -0.5364,0.0049 -0.57081,-0.01508 -0.18907,-0.109847 -0.89614,-0.135119 -0.93383,-0.03336 -0.0243,0.06573 -0.12866,0.08781 -0.23181,0.04912 -0.10316,-0.03869 -0.2925,0.02332 -0.42075,0.137803 -0.12825,0.114479 -0.3032,0.181885 -0.38877,0.149795 -0.0856,-0.03208 -10.134814,8.10963 -22.331643,18.092699 -18.989146,15.542586 -22.883716,18.657266 -22.696368,18.151446 0.01543,-0.0418 -0.212089,-0.003 -0.50574,0.0858 -0.414196,0.12558 -0.64438,0.10702 -1.026648,-0.0827 -0.27101,-0.13454 -0.662441,-0.31797 -0.869859,-0.40761 -0.20742,-0.0896 -0.473208,-0.29446 -0.590643,-0.45511 -0.117445,-0.16065 -0.290748,-0.27635 -0.385127,-0.2571 -0.09439,0.0193 -0.219788,-0.0486 -0.278696,-0.15079 -0.05891,-0.10215 -0.336295,-0.27566 -0.616415,-0.38559 -0.789536,-0.30985 -2.092539,-0.93879 -2.133484,-1.02983 -0.02024,-0.0451 -0.196299,-0.0807 -0.391387,-0.0788 -0.195026,0.002 -0.491991,-0.0198 -0.659945,-0.048 -1.013871,-0.16979 -1.699174,-0.21571 -2.192075,-0.14671 -0.307972,0.0431 -0.592468,0.036 -0.632214,-0.0158 -0.03974,-0.0518 -0.13759,-0.0195 -0.217507,0.0722 -0.07989,0.0915 -0.202344,0.14496 -0.272134,0.11879 -0.06978,-0.0262 -0.448549,0.0978 -0.841686,0.27554 -0.393135,0.17772 -0.760348,0.30604 -0.816028,0.28516 -0.05566,-0.0209 -0.232403,0.0791 -0.392717,0.22222 -0.160317,0.1431 -0.3616,0.23387 -0.447301,0.20174 -0.191965,-0.072 -4.003721,3.03873 -3.96528,3.23601 0.01522,0.078 -0.17368,0.30711 -0.41976,0.50904 -0.246083,0.20195 -0.426396,0.4139 -0.400702,0.47101 0.02569,0.0571 -0.114223,0.25121 -0.310914,0.43132 -0.333551,0.30543 -0.520508,0.57108 -0.833098,1.18376 -0.06963,0.13645 -0.238243,0.34714 -0.374712,0.46817 -0.136467,0.12103 -0.226949,0.26714 -0.201068,0.32467 0.02588,0.0576 -0.03754,0.19213 -0.140939,0.29911 -0.103397,0.10699 -0.247335,0.30529 -0.319852,0.44067 -0.07252,0.13537 -0.230302,0.40874 -0.350631,0.60748 -0.120326,0.19874 -0.329152,0.58599 -0.464043,0.86056 -0.134895,0.27456 -0.363961,0.72073 -0.509044,0.99148 -0.246886,0.46074 -0.372679,0.76715 -0.578368,1.40885 -0.0465,0.14514 -0.160479,0.43494 -0.253123,0.64406 -0.0927,0.2091 -0.223838,0.60392 -0.291427,0.87739 -0.06758,0.27344 -0.193896,0.55307 -0.2807,0.62137 -0.08679,0.0683 -0.157114,0.29169 -0.156261,0.49642 8.53e-4,0.20473 -0.07432,0.64766 -0.167051,0.98426 -0.421491,1.53002 -0.54703,2.12988 -0.579825,2.77055 -0.0081,0.15857 -0.08501,0.5401 -0.170877,0.84784 -0.166796,0.59783 -0.239213,1.02273 -0.260706,1.52972 -0.0074,0.17365 -0.07693,0.52466 -0.1546,0.78005 -0.179615,0.59059 -0.288745,1.24998 -0.286731,1.73233 8.66e-4,0.20772 -0.02658,0.36713 -0.061,0.35423 -0.03445,-0.0128 -0.05434,0.20341 -0.04428,0.48071 0.01008,0.27769 -0.0552,0.56201 -0.1453,0.63291 -0.08998,0.0708 -0.1686,0.38285 -0.174711,0.69343 -0.0061,0.31058 -0.03594,0.55539 -0.06628,0.54401 -0.03043,-0.011 -0.05338,0.16288 -0.0511,0.38728 0.0058,0.58581 -0.04411,0.88438 -0.27635,1.65168 -0.113268,0.37425 -0.186817,0.77863 -0.163435,0.89861 0.02338,0.12001 -0.03411,0.45582 -0.127764,0.74627 -0.2145,0.66524 -0.338397,1.39346 -0.294194,1.72926 0.01876,0.14248 -0.0439,0.32043 -0.139207,0.39545 -0.0956,0.0752 -0.172661,0.29719 -0.171832,0.49499 8.28e-4,0.19723 -0.05737,0.5135 -0.129368,0.70281 -0.07196,0.18932 -0.27264,0.8231 -0.445958,1.40841 -0.579012,1.95541 -1.459298,4.15828 -2.054535,5.14139 -0.120333,0.19873 -0.275532,0.47307 -0.344894,0.60964 -0.06936,0.13655 -0.298296,0.40182 -0.508748,0.58948 -0.21045,0.18765 -0.371775,0.39691 -0.3585,0.46502 0.01329,0.0681 -0.30085,0.3973 -0.698056,0.73151 -0.397204,0.33421 -0.70422,0.54788 -0.68226,0.47483 0.02198,-0.073 -0.104612,-0.0494 -0.281269,0.0527 -0.283625,0.1638 -1.290725,0.2554 -1.237825,0.11257 0.01125,-0.0302 -0.152335,-0.0532 -0.363263,-0.0514 -0.266557,0.002 -0.419771,-0.0605 -0.50216,-0.20592 -0.0652,-0.11517 -0.202506,-0.21016 -0.305116,-0.2111 -0.245969,-0.002 -0.75529,-0.63174 -0.67861,-0.83877 0.03303,-0.0892 -0.0272,-0.26228 -0.133843,-0.3847 -0.181563,-0.20844 -0.264615,-1.14213 -0.09597,-1.07888 0.04238,0.0163 0.0192,-0.11923 -0.05169,-0.30031 -0.07297,-0.18641 -0.06355,-0.34259 0.0217,-0.35998 0.08282,-0.0169 0.265476,-0.23767 0.405879,-0.4906 0.465406,-0.83841 0.539373,-0.94448 0.838963,-1.20305 0.307573,-0.26549 0.372371,-0.36702 0.836484,-1.31068 0.151885,-0.30884 0.364873,-0.72645 0.473292,-0.92804 0.108421,-0.2016 0.196545,-0.5046 0.195845,-0.67332 -7.08e-4,-0.16874 0.09016,-0.38538 0.201935,-0.48145 0.111763,-0.096 0.156732,-0.19209 0.09992,-0.21339 -0.05681,-0.0213 0.03047,-0.4375 0.193971,-0.92488 0.460717,-1.3734 0.671527,-2.18988 0.669742,-2.59392 -8.94e-4,-0.20357 0.102067,-0.61388 0.228814,-0.91182 0.126749,-0.29794 0.177029,-0.56175 0.111703,-0.58624 -0.06528,-0.0246 -0.06265,-0.0886 0.0059,-0.14254 0.0685,-0.0539 0.107764,-0.22568 0.08724,-0.38169 -0.02066,-0.15701 0.03917,-0.34387 0.134023,-0.4185 0.09836,-0.0774 0.175984,-0.36977 0.182208,-0.68627 0.006,-0.3033 0.05764,-0.57316 0.114817,-0.59971 0.05719,-0.0265 0.04636,-0.0699 -0.02406,-0.0963 -0.07043,-0.0264 -0.103976,-0.12212 -0.07455,-0.2127 0.02945,-0.0906 0.0855,-0.41872 0.124596,-0.72921 0.0391,-0.31049 0.154763,-0.74931 0.25693,-0.97517 0.102207,-0.22586 0.143555,-0.4265 0.09188,-0.44589 -0.05171,-0.0192 -0.06998,-0.10938 -0.04071,-0.20001 0.09481,-0.29335 0.214221,-1.11026 0.184549,-1.26246 -0.01588,-0.0814 0.04359,-0.39728 0.13214,-0.70187 0.18221,-0.6268 0.33997,-1.4474 0.308871,-1.60683 -0.03213,-0.16489 0.121913,-1.00597 0.278628,-1.52127 0.07766,-0.25539 0.147241,-0.60641 0.1546,-0.78004 0.02311,-0.54501 0.09159,-0.9545 0.257197,-1.53801 0.08818,-0.31069 0.166687,-0.71355 0.174447,-0.89525 0.0078,-0.1817 0.07214,-0.54139 0.143039,-0.79932 0.07089,-0.25792 0.21661,-0.80184 0.323827,-1.20872 0.107217,-0.40688 0.229133,-0.82672 0.270929,-0.93297 0.04183,-0.10625 0.112983,-0.31235 0.158141,-0.45798 0.04518,-0.14564 0.163905,-0.46691 0.263819,-0.71395 0.09991,-0.24704 0.218956,-0.56819 0.264531,-0.71368 0.195424,-0.6235 1.282716,-3.21386 1.339991,-3.19238 0.03137,0.0122 0.317456,-0.52295 0.635873,-1.18888 0.153502,-0.32103 0.338819,-0.63069 0.411813,-0.68812 0.07298,-0.0574 0.221264,-0.32391 0.329493,-0.59215 0.108227,-0.26824 0.277421,-0.53769 0.37599,-0.59878 0.09857,-0.0611 0.163999,-0.18911 0.145406,-0.28451 -0.01859,-0.0954 0.105113,-0.27693 0.274919,-0.40343 0.169791,-0.12649 0.35253,-0.33769 0.406084,-0.46934 0.227415,-0.55905 0.444257,-0.87875 0.828454,-1.22147 0.224546,-0.2003 0.421444,-0.44532 0.43755,-0.54452 0.01613,-0.0992 0.209774,-0.32584 0.430372,-0.50367 0.220603,-0.17786 0.401539,-0.40145 0.40208,-0.49689 5.4e-4,-0.0954 0.25255,-0.36673 0.560012,-0.60286 0.307468,-0.23613 0.590619,-0.53682 0.629225,-0.66818 0.09299,-0.31644 2.326146,-2.15534 2.676758,-2.20421 0.150839,-0.021 0.575459,-0.29522 0.943601,-0.60934 0.368142,-0.31411 0.710343,-0.51766 0.76045,-0.45233 0.05011,0.0653 0.247059,-0.0244 0.437677,-0.19947 0.190618,-0.17503 0.419105,-0.29104 0.507751,-0.2578 0.08865,0.0332 0.332027,-0.0796 0.540851,-0.2508 0.208819,-0.17118 0.40045,-0.26504 0.425845,-0.20859 0.02539,0.0564 0.210625,-0.0191 0.411617,-0.167953 0.200992,-0.148818 0.348495,-0.22366 0.32779,-0.166329 -0.02068,0.05742 0.210236,0.02754 0.513194,-0.06619 0.302964,-0.09373 0.617433,-0.145455 0.698818,-0.114939 0.08138,0.03052 0.169583,-0.0028 0.196037,-0.07428 0.02644,-0.07138 0.136305,-0.09668 0.244152,-0.05623 0.107855,0.04042 0.252482,0.0089 0.321398,-0.07001 0.06892,-0.07895 0.255931,-0.105595 0.41558,-0.05922 0.159655,0.04637 0.400962,0.01036 0.536242,-0.08001 0.135283,-0.09038 0.229449,-0.119712 0.209261,-0.06521 -0.02023,0.05455 0.158777,0.0348 0.397422,-0.04239 0.238773,-0.07783 0.472268,-0.09177 0.51888,-0.03099 0.04662,0.06076 0.213871,0.09251 0.371611,0.07089 0.157815,-0.02202 0.435466,-0.01495 0.617023,0.0156 0.181467,0.03104 0.644367,0.093 1.028501,0.138607 0.943216,0.112225 1.690267,0.31585 2.980295,0.812508 1.751397,0.67425 2.574653,1.06481 2.804693,1.33059 0.205085,0.23695 1.234946,-0.58568 21.021052,-16.79118 11.44292,-9.37213 20.904468,-17.032321 21.025608,-17.022594 0.12115,0.0097 0.5366,-0.258366 0.92324,-0.59576 0.38663,-0.337393 0.75436,-0.594165 0.81717,-0.570611 0.0628,0.02357 0.43586,-0.10258 0.829,-0.280299 0.39313,-0.177719 0.75622,-0.307586 0.80687,-0.288596 0.0506,0.01896 0.20953,-0.05701 0.3531,-0.168901 0.14356,-0.111895 0.30383,-0.147622 0.35615,-0.07941 0.0523,0.06824 0.11735,0.06404 0.14452,-0.0093 0.0272,-0.07335 0.11701,-0.07301 0.19966,7.33e-4 0.0827,0.07373 0.22116,0.05288 0.30781,-0.04637 0.0866,-0.09926 0.20242,-0.121956 0.25727,-0.05043 0.0548,0.07149 0.16297,0.05757 0.24023,-0.03091 0.11044,-0.126497 0.90657,-0.07581 1.27287,0.08105 0.0351,0.01504 0.30689,0.01715 0.60405,0.0047 0.58635,-0.02455 1.28188,0.06691 1.57737,0.207418 0.10229,0.04867 0.30357,0.125361 0.44725,0.170539 0.62795,0.197304 1.5655,0.591474 1.89278,0.795713 0.19543,0.121978 0.46567,0.278296 0.6005,0.347368 0.13484,0.06906 0.34811,0.248273 0.47394,0.398224 0.12584,0.149958 0.30546,0.285143 0.39915,0.300416 0.0937,0.01518 0.33172,0.21223 0.52895,0.437688 0.19722,0.225457 0.47747,0.470524 0.62277,0.544598 0.36887,0.188031 1.19475,1.241753 1.12368,1.433659 -0.0322,0.08715 0.12225,0.375044 0.3434,0.639802 0.22115,0.264758 0.41817,0.588092 0.43781,0.718525 0.0197,0.130441 0.16247,0.412834 0.3174,0.627572 0.15491,0.214726 0.23536,0.373497 0.17879,0.352815 -0.0566,-0.02063 -0.0282,0.212816 0.063,0.518896 0.0912,0.306075 0.1432,0.617732 0.11549,0.692582 -0.0277,0.07485 0.0268,0.204912 0.12095,0.289008 0.0942,0.08411 0.11722,0.195519 0.0511,0.247581 -0.0661,0.05204 -0.0644,0.169587 0.003,0.260991 0.17024,0.228831 0.25179,0.839687 0.17015,1.274532 -0.0375,0.198922 6e-5,0.470334 0.0831,0.603084 0.083,0.132749 0.11259,0.226957 0.0656,0.209363 -0.047,-0.01755 -0.0846,0.137956 -0.0838,0.345675 0.004,1.071779 -0.64973,2.941534 -1.73483,4.958084 -0.0728,0.135274 -0.30454,0.399491 -0.51499,0.587146 -0.21045,0.187648 -0.3716,0.397816 -0.35811,0.467037 0.0135,0.06916 -4.62555,3.930873 -10.30897,8.581453 -6.520566,5.335581 -10.305869,8.518185 -10.258603,8.625215 0.04118,0.0933 0.316887,0.26795 0.612651,0.3881 0.29577,0.12012 0.630423,0.32263 0.743688,0.44993 0.113263,0.12731 0.289841,0.23237 0.392384,0.23349 0.102546,0.001 0.242858,0.10179 0.311854,0.22354 0.06898,0.12184 0.200285,0.20625 0.291806,0.18756 0.09151,-0.0186 0.432305,0.30731 0.757319,0.7244 0.325015,0.41709 0.659811,0.74429 0.743996,0.72712 0.197667,-0.0403 0.570537,0.44858 0.495869,0.65019 -0.03153,0.0851 0.217106,0.47694 0.552456,0.87084 0.33536,0.39389 0.59097,0.76688 0.56801,0.82884 -0.023,0.062 0.12563,0.45814 0.33018,0.88038 0.20454,0.42224 0.34703,0.83488 0.31662,0.91698 -0.0305,0.0821 0.002,0.17086 0.0727,0.1973 0.0705,0.0264 0.0949,0.13744 0.0545,0.24674 -0.0405,0.1093 -0.01,0.25547 0.0677,0.32484 0.0778,0.0693 0.1032,0.25844 0.0566,0.42017 -0.0466,0.16174 -0.0207,0.39242 0.0574,0.51261 0.0781,0.12019 0.0929,0.24135 0.0328,0.26922 -0.06,0.0279 -0.0731,0.21594 -0.0288,0.41797 0.0732,0.33469 0.0804,1.21818 0.0143,1.74658 -0.0144,0.1165 -0.12276,0.46073 -0.24031,0.76504 -0.25326,0.65548 -0.005,1.44222 0.46246,1.46449 0.1497,0.007 0.28691,0.0889 0.305,0.18148 0.0181,0.0927 0.1021,0.15441 0.18673,0.13718 0.27867,-0.0569 1.13013,0.24107 1.24242,0.43472 0.0606,0.10441 0.20342,0.18874 0.31748,0.18733 0.11406,-0.001 0.28273,0.11389 0.37508,0.25549 0.0923,0.1419 0.25338,0.25695 0.35809,0.25569 0.1047,-0.001 0.29991,0.14858 0.43375,0.33304 0.13386,0.18444 0.31088,0.32158 0.39339,0.30476 0.20089,-0.041 3.16229,3.64979 3.09062,3.85181 -0.0307,0.0872 0.0372,0.26569 0.15129,0.3967 0.11414,0.13103 0.1556,0.2791 0.0921,0.32904 -0.0634,0.0499 0.0255,0.24794 0.19755,0.43995 0.17212,0.19204 0.28337,0.42901 0.24723,0.52659 -0.0361,0.0976 0.0113,0.24626 0.10564,0.33037 0.0942,0.0841 0.11722,0.19553 0.0511,0.24759 -0.0661,0.0521 -0.0523,0.17569 0.0308,0.27476 0.0831,0.099 0.12137,0.3225 0.0851,0.49656 -0.0357,0.17415 -0.0208,0.37776 0.0342,0.45266 0.0813,0.11066 0.0254,0.75744 -0.11019,1.27548 -0.0149,0.0561 -0.0261,0.25535 -0.0253,0.44273 0.004,1.00596 -0.86897,3.68033 -1.31396,4.02441 -0.13201,0.10207 -0.23936,0.27882 -0.23853,0.39276 8.7e-4,0.11396 -0.0987,0.26558 -0.22128,0.33697 -0.12253,0.0714 -0.20852,0.20293 -0.1911,0.29233 0.0174,0.0894 -0.18791,0.34901 -0.45631,0.57688 -0.42297,0.35913 -0.46867,0.44086 -0.34297,0.6134 0.0798,0.10945 0.23579,0.21975 0.34675,0.24502 0.11089,0.0255 0.30508,0.16757 0.43139,0.31624 0.12633,0.14865 0.30647,0.2824 0.40035,0.29719 0.094,0.0141 0.27433,0.14934 0.40105,0.29894 0.12671,0.14963 0.29543,0.25877 0.37494,0.24255 0.0795,-0.0163 0.47389,0.38283 0.8764,0.88679 0.4025,0.50395 0.80785,0.9188 0.90078,0.92186 0.22477,0.007 1.10618,1.11033 0.97183,1.21604 -0.0577,0.0455 0.14429,0.38583 0.44899,0.75636 0.30472,0.37054 0.52683,0.74715 0.49358,0.83691 -0.0333,0.0897 0.0547,0.29536 0.19537,0.45689 0.14069,0.16153 0.22634,0.37324 0.19032,0.47048 -0.036,0.0972 0.008,0.24258 0.0983,0.32297 0.0901,0.0804 0.1188,0.18156 0.0638,0.22481 -0.055,0.0433 -0.001,0.21453 0.11915,0.38061 0.12053,0.16607 0.17837,0.44345 0.12856,0.61642 -0.0498,0.17298 -0.0379,0.35739 0.0264,0.40982 0.0643,0.0525 0.0857,0.17989 0.0474,0.28324 -0.0382,0.10336 -0.001,0.24876 0.0819,0.32311 0.12064,0.10768 0.0652,0.91525 -0.0832,1.21131 -0.0173,0.0341 -0.0255,0.41081 -0.0186,0.83689 0.008,0.49025 -0.046,0.78664 -0.14701,0.80717 -0.0877,0.0179 -0.16622,0.16601 -0.17455,0.32916 -0.0217,0.42316 -0.22654,1.07233 -0.34624,1.0967 -0.0559,0.0114 -0.20699,0.33329 -0.33593,0.71534 -0.12892,0.38206 -0.37176,0.82603 -0.5395,0.98667 -0.18077,0.17306 -0.25232,0.31181 -0.1756,0.34058 0.0712,0.0267 -0.0507,0.19244 -0.27094,0.36829 -0.22022,0.17586 -0.38845,0.38099 -0.37388,0.45584 0.0145,0.0748 -0.17059,0.29788 -0.41154,0.4956 -0.24093,0.19771 -0.42517,0.42567 -0.40941,0.50657 0.0158,0.0809 -0.46073,0.54555 -1.05891,1.03255 -0.59816,0.48702 -1.12057,0.99034 -1.16089,1.11851 -0.0965,0.30649 -16.91809,14.07383 -17.154446,14.03967 -0.100111,-0.0143 -1.067759,0.70531 -2.150398,1.59947 -1.082646,0.89416 -2.092049,1.64298 -2.243118,1.66403 -0.151084,0.0211 -0.624871,0.33945 -1.052871,0.70752 -0.42801,0.36809 -0.909314,0.68752 -1.069589,0.70985 -0.160268,0.0224 -0.505178,0.22367 -0.766471,0.44742 -0.261295,0.22376 -0.509702,0.36168 -0.552028,0.30649 -0.04231,-0.0551 -0.327563,0.1066 -0.633884,0.35949 -0.306327,0.25288 -0.628837,0.43282 -0.71669,0.39989 -0.08785,-0.033 -0.344054,0.10375 -0.569321,0.30378 -0.225263,0.20002 -0.481427,0.33675 -0.569236,0.30381 -0.08781,-0.033 -0.313944,0.0818 -0.502504,0.25494 -0.188565,0.17314 -0.418056,0.2866 -0.509989,0.25213 -0.09192,-0.0345 -0.298315,0.0544 -0.458625,0.1975 -0.160318,0.1431 -0.366698,0.23198 -0.45863,0.19749 -0.09192,-0.0345 -0.321425,0.079 -0.509985,0.25214 -0.188558,0.17315 -0.423903,0.28441 -0.522986,0.24725 -0.09908,-0.0372 -0.259995,0.0356 -0.357565,0.16151 -0.09761,0.12598 -0.257937,0.19886 -0.356354,0.16195 -0.09842,-0.0369 -0.285341,0.0279 -0.415383,0.14396 -0.130052,0.11608 -0.27626,0.15915 -0.324923,0.0957 -0.04866,-0.0634 -0.194876,-0.0204 -0.324923,0.0957 -0.130055,0.11609 -0.31697,0.18086 -0.41539,0.14396 -0.09842,-0.0369 -0.258775,0.036 -0.35634,0.16195 -0.09761,0.12599 -0.261769,0.19742 -0.364877,0.15875 -0.103091,-0.0387 -0.25281,0.005 -0.332698,0.0961 -0.07989,0.0915 -0.177998,0.12367 -0.218024,0.0715 -0.04001,-0.0522 -0.347312,0.0159 -0.682832,0.15122 -0.583758,0.23549 -0.840326,0.30273 -1.615414,0.42331 -0.191502,0.0298 -0.410936,0.0971 -0.487617,0.14967 -0.07671,0.0526 -0.201255,0.0723 -0.276823,0.044 -0.07556,-0.0284 -0.200118,-0.009 -0.276824,0.044 -0.07669,0.0525 -0.296109,0.11988 -0.487612,0.14968 l -0.696374,0.10835 c -0.191502,0.0298 -0.410935,0.0971 -0.487615,0.14966 -0.07669,0.0525 -0.201255,0.0723 -0.276824,0.044 -0.07556,-0.0284 -0.207491,0.004 -0.29318,0.0711 -0.08569,0.0675 -0.295225,0.0935 -0.465656,0.058 -0.170522,-0.035 -0.368372,-0.0249 -0.439881,0.0235 -0.226156,0.15323 -1.132875,0.24983 -1.224452,0.13043 -0.0483,-0.063 -0.153164,-0.0398 -0.233075,0.0519 -0.07989,0.0915 -0.284939,0.11398 -0.455677,0.0499 -0.170744,-0.064 -0.369862,-0.0483 -0.442484,0.0349 -0.07261,0.0832 -0.3816,0.10112 -0.686607,0.0399 -0.305054,-0.0611 -0.574218,-0.0583 -0.598238,0.007 -0.02405,0.0649 -0.230791,0.0916 -0.459492,0.0594 -0.228713,-0.0321 -0.434007,-0.009 -0.456238,0.0506 -0.02222,0.06 -0.227545,0.0828 -0.456236,0.0506 -0.228706,-0.0321 -0.434,-0.009 -0.456238,0.0506 -0.03397,0.0918 -0.697429,0.0711 -1.050462,-0.0328 -0.05682,-0.0171 -0.171895,0.0235 -0.255574,0.0893 -0.0837,0.0659 -0.365155,0.0792 -0.625471,0.0297 -0.260298,-0.0496 -0.557137,-0.0409 -0.659606,0.0192 -0.102469,0.0601 -0.308448,0.0847 -0.457736,0.0546 -0.149321,-0.0299 -0.370598,0.008 -0.491803,0.084 -0.1212,0.0763 -0.253146,0.11119 -0.293206,0.0776 -0.122783,-0.1029 -1.080004,-0.048 -1.121627,0.0644 -0.02145,0.058 -0.122648,0.0742 -0.22479,0.0358 -0.102141,-0.0383 -0.258861,-0.0138 -0.348269,0.0544 -0.08941,0.0683 -0.354027,0.14768 -0.588059,0.17661 -0.234038,0.029 -0.615137,0.20183 -0.846892,0.38419 -0.231769,0.18239 -0.493879,0.30442 -0.582466,0.27119 -0.08859,-0.0332 -0.280774,0.061 -0.427083,0.20931 -0.146312,0.14836 -0.347519,0.23917 -0.447133,0.20182 -0.09963,-0.0373 -0.246732,0.007 -0.326922,0.0991 -0.08018,0.0918 -0.234041,0.13393 -0.341891,0.0935 -0.107853,-0.0404 -0.219169,-0.0112 -0.247391,0.065 -0.02913,0.0786 -0.147094,0.0628 -0.272618,-0.0366 -0.121721,-0.0963 -0.351636,-0.15685 -0.510897,-0.13471 -0.211349,0.0295 -0.344549,-0.0406 -0.493089,-0.25921 z"
       id="path826"
       inkscape:connector-curvature="0" />
    <path
       style="opacity:0.98000004;fill:#ffffff;fill-opacity:1;stroke:#b8db7c;stroke-width:0.71428573;stroke-opacity:0"
       d=""
       id="path855"
       inkscape:connector-curvature="0"
       transform="scale(0.26458333)" />
    <path
       id="path859"
       transform="scale(0.26458333)"
       style="opacity:0.98000004;fill:#ffffff;fill-opacity:1;stroke:#b8db7c;stroke-width:0.71428573;stroke-opacity:0"
       d="m 407.82422,268.29102 c -3.88594,-0.10632 -5.6651,0.63497 -8.99414,3.31445 -2.19025,1.76289 -2.03501,1.91707 2.73437,2.69336 1.57143,0.25577 5.1402,1.5569 7.93164,2.89062 6.17078,2.94833 12.69907,9.53918 15.3125,15.46094 l 1.74805,3.96289 0.89648,-2.13086 c 1.0762,-2.55951 1.16842,-8.52901 0.1836,-11.96289 -0.39246,-1.36842 -1.84538,-4.13236 -3.22852,-6.14062 -3.40111,-4.93826 -8.17791,-7.52181 -14.77929,-7.99414 -0.65172,-0.0466 -1.24956,-0.0786 -1.80469,-0.0937 z" />
    <path
       style="opacity:0.98000004;fill:#333333;fill-opacity:1;stroke:#b8db7c;stroke-width:0.71428573;stroke-opacity:0"
       d="m 197.50026,673.23164 c -4.88565,-1.58861 -7.19311,-5.5224 -6.34615,-10.81896 1.35035,-8.44469 14.81386,-14.07882 36.70329,-15.35938 15.94047,-0.93254 22.4085,-1.50619 28.57143,-2.53402 2.16071,-0.36036 5.15467,-0.84477 6.65324,-1.07649 2.68092,-0.41453 18.76984,-5.40633 21.56104,-6.6896 0.78572,-0.36123 3.67857,-1.6539 6.42857,-2.87259 2.75,-1.21869 5.48215,-2.51006 6.07143,-2.8697 0.58929,-0.35964 2.81763,-1.55805 4.95187,-2.66312 7.76554,-4.02085 20.28368,-13.03098 37.7852,-27.19647 29.83512,-24.14816 56.67028,-46.4183 61.06454,-50.67666 7.02025,-6.80313 10.17635,-15.16938 8.06267,-21.37269 -1.6308,-4.78611 -8.0365,-12.36522 -12.50752,-14.79865 -4.19966,-2.28575 -9.28914,-2.76828 -11.31841,-1.0731 -0.68895,0.57552 -2.0562,1.42797 -3.03835,1.89432 -0.98214,0.46636 -3.3476,1.97493 -5.25656,3.3524 -3.99912,2.88566 -6.823,3.19103 -10.24034,1.10734 -4.55773,-2.77902 -6.43276,-8.35422 -4.05608,-12.06033 0.73628,-1.14815 5.03513,-5.19403 9.55298,-8.99085 10.93817,-9.19248 19.80274,-18.47266 21.88284,-22.90882 3.42866,-7.31218 1.55731,-14.90764 -5.31092,-21.55594 -8.47118,-8.19992 -15.94592,-7.85849 -27.62211,1.26172 -8.38046,6.54594 -12.78442,7.79811 -16.85131,4.79134 -3.41395,-2.52405 -4.88805,-5.60345 -4.27837,-8.93756 0.71824,-3.92772 1.78467,-5.14162 12.65918,-14.40962 11.30599,-9.63572 13.14544,-12.43311 13.21759,-20.10095 0.11344,-12.05579 -9.97828,-21.56697 -21.5198,-20.28182 -5.95038,0.66258 -7.89473,1.74902 -19.07554,10.6587 -8.74649,6.96986 -11.0252,8.16828 -14.55414,7.65435 -7.08225,-1.03141 -10.14863,-8.32127 -5.86885,-13.95228 1.08036,-1.42145 5.33929,-5.37169 9.46429,-8.77831 4.125,-3.40662 29.03571,-23.89606 55.35714,-45.53211 26.32143,-21.63603 50.00012,-41.51679 52.61932,-44.17945 5.6163,-5.70951 7.28129,-9.59352 6.68414,-15.59246 -0.66685,-6.69921 -5.17255,-13.74872 -10.53652,-16.48521 -4.17438,-2.12961 -11.30457,-3.10691 -14.65883,-2.00922 -3.25673,1.06578 -9.55569,6.10234 -99.45051,79.51915 -38.98559,31.83941 -68.21862,55.41024 -70.72903,57.02939 -3.84911,2.48259 -6.39967,2.29132 -11.42857,-0.85705 -2.55357,-1.59868 -7.2275,-4.17102 -10.38651,-5.71632 -4.91556,-2.40456 -6.68708,-2.88086 -12.28718,-3.30361 -5.82121,-0.43944 -7.04008,-0.31038 -11.04205,1.16917 -5.72143,2.11524 -8.44204,3.62931 -13.46077,7.49113 -9.10713,7.00778 -15.50978,14.87231 -22.68501,27.86455 -1.52886,2.76832 -3.80575,7.75046 -5.05976,11.07143 -1.25401,3.32097 -2.5507,6.68098 -2.88154,7.4667 -0.68912,1.63657 -2.6073,10.20159 -3.63928,16.25 -0.38541,2.25892 -1.03463,5.95535 -1.44271,8.21428 -1.54189,8.5353 -2.97123,17.10081 -3.48644,20.89286 -2.39039,17.59396 -8.59756,39.11226 -14.44936,50.09136 -2.93346,5.50373 -8.48769,11.04846 -11.66437,11.64441 -8.95036,1.67909 -14.680849,-7.36004 -9.5255,-15.02528 1.08471,-1.6128 2.39101,-3.27995 2.9029,-3.70478 0.80959,-0.6719 4.69263,-8.48327 6.28762,-12.64857 1.74939,-4.56851 6.16212,-23.71567 6.73755,-29.23473 0.24284,-2.3291 0.611,-4.50894 0.81812,-4.84408 0.20713,-0.33513 0.81847,-3.57236 1.35855,-7.19383 1.80238,-12.08581 2.32681,-15.08868 4.54828,-26.04302 4.2865,-21.13728 13.56095,-41.18326 26.02723,-56.25577 4.90017,-5.92461 13.32261,-14.07125 15.86203,-15.34263 1.16108,-0.5813 3.07535,-1.74218 4.25392,-2.57974 4.67331,-3.32111 13.13712,-6.70801 19.73457,-7.89706 7.22444,-1.30203 11.42988,-1.34109 18.09961,-0.1681 4.33666,0.76268 15.85721,4.99007 18.76745,6.88658 0.88089,0.57406 2.03572,0.87716 2.56627,0.67357 1.76173,-0.67604 14.42512,-10.9453 122.19403,-99.09208 16.19422,-13.24564 34.80925,-28.02145 38.28092,-30.38575 5.27465,-3.59216 11.00951,-5.38802 18.59621,-5.82335 7.51766,-0.43137 12.26746,0.54818 18.87329,3.89225 5.17206,2.61825 13.6304,9.84383 15.06686,12.87096 0.67409,1.42053 2.09217,4.05247 3.15129,5.84874 1.05913,1.79628 2.12602,4.3895 2.37089,5.76271 0.24486,1.37322 0.62776,3.30033 0.85088,4.28247 1.12035,4.93172 1.11454,11.69486 -0.0134,15.57477 -3.36961,11.59098 -6.42176,15.63343 -20.32463,26.9192 -10.34896,8.40085 -29.13641,24.12743 -48.64572,40.72032 -8.31432,7.07143 -15.61296,13.25561 -16.21918,13.74262 -0.60623,0.48701 -0.96499,0.99231 -0.79724,1.12288 0.16775,0.13057 1.7965,1.09105 3.61944,2.13439 3.26324,1.86769 12.0427,9.93872 12.0427,11.07097 0,0.31909 0.8259,1.68726 1.83534,3.04037 3.99476,5.35483 6.0017,12.29901 6.01333,20.80656 0.005,3.41192 -0.31627,7.05765 -0.7132,8.10162 -1.15582,3.04005 0.43821,5.38009 4.83025,7.09081 9.23284,3.59625 19.35973,14.25783 23.77721,25.03264 1.4643,3.57161 1.74767,5.41637 1.70062,11.07143 -0.0347,4.17357 -0.53548,8.43547 -1.30087,11.07142 -1.27538,4.39233 -5.90231,12.96136 -7.88882,14.61002 -1.78327,1.47998 -1.32531,2.49546 2.28186,5.05976 14.1287,10.04392 22.65958,25.43643 21.21214,38.27372 -1.28625,11.40768 -6.44981,20.32798 -18.17643,31.40059 -7.65241,7.22564 -48.78396,41.20369 -62.63964,51.74551 -2.82681,2.15073 -7.96967,6.06909 -11.42857,8.70749 -18.38239,14.02176 -35.50432,23.47416 -53.31424,29.43286 -6.84863,2.29137 -20.66973,5.79578 -25.83183,6.5498 -3.48042,0.50839 -17.22373,1.65576 -25,2.08715 -15.13865,0.83983 -19.03062,1.58989 -26.48968,5.10511 -5.14869,2.42642 -5.98162,2.60046 -8.51032,1.77822 z"
       id="path1009"
       inkscape:connector-curvature="0"
       transform="scale(0.26458333)" />
    <path
       style="fill:none;stroke:#333333;stroke-width:0.73975766px;stroke-linecap:butt;stroke-linejoin:miter;stroke-opacity:1"
       d="m 135.51693,145.47807 c 0,0 54.29688,-18.07716 45.67899,-81.04083"
       id="path1017-1-8"
       inkscape:connector-curvature="0"
       sodipodi:nodetypes="cc" />
    <path
       style="fill:none;stroke:#333333;stroke-width:0.58551145px;stroke-linecap:butt;stroke-linejoin:miter;stroke-opacity:1"
       d="m 133.12492,134.77944 c 0,0 45.28935,-14.84018 39.4226,-62.361777"
       id="path1017-9-4-9"
       inkscape:connector-curvature="0"
       sodipodi:nodetypes="cc" />
    <path
       style="fill:none;stroke:#333333;stroke-width:0.42860562px;stroke-linecap:butt;stroke-linejoin:miter;stroke-opacity:1"
       d="m 133.4144,123.71114 c 0,0 32.94159,-10.81429 28.56247,-45.802517"
       id="path1017-9-3-66-2"
       inkscape:connector-curvature="0"
       sodipodi:nodetypes="cc" />
    <path
       style="fill:none;stroke:#333333;stroke-width:0.33470818px;stroke-linecap:butt;stroke-linejoin:miter;stroke-opacity:1"
       d="m 131.10565,115.04158 c 0,0 25.13081,-8.308 21.46862,-36.215497"
       id="path1017-9-3-6-5-1"
       inkscape:connector-curvature="0"
       sodipodi:nodetypes="cc" />
    <path
       style="fill:none;stroke:#333333;stroke-width:0.73975766px;stroke-linecap:butt;stroke-linejoin:miter;stroke-opacity:1"
       d="m 75.395757,8.0421833 c 0,0 -51.46722,25.0211997 -34.69094,86.3175897"
       id="path1017-1-8-3"
       inkscape:connector-curvature="0"
       sodipodi:nodetypes="cc" />
    <path
       style="fill:none;stroke:#333333;stroke-width:0.58551145px;stroke-linecap:butt;stroke-linejoin:miter;stroke-opacity:1"
       d="m 79.166057,18.336223 c 0,0 -42.96025,20.63428 -30.9305,66.98087"
       id="path1017-9-4-9-3"
       inkscape:connector-curvature="0"
       sodipodi:nodetypes="cc" />
    <path
       style="fill:none;stroke:#333333;stroke-width:0.42860565px;stroke-linecap:butt;stroke-linejoin:miter;stroke-opacity:1"
       d="m 80.326217,29.347363 c 0,0 -31.24486,15.0285 -22.32869,49.14381"
       id="path1017-9-3-66-2-3"
       inkscape:connector-curvature="0"
       sodipodi:nodetypes="cc" />
    <path
       style="fill:none;stroke:#333333;stroke-width:0.33470818px;stroke-linecap:butt;stroke-linejoin:miter;stroke-opacity:1"
       d="m 83.748677,37.640643 c 0,0 -23.82882,11.52247 -16.54922,38.71158"
       id="path1017-9-3-6-5-1-0"
       inkscape:connector-curvature="0"
       sodipodi:nodetypes="cc" />
    <flowRoot
       xml:space="preserve"
       id="flowRoot1184"
       style="fill:black;fill-opacity:1;stroke:none;font-family:sans-serif;font-style:normal;font-weight:normal;font-size:40px;line-height:1.25;letter-spacing:0px;word-spacing:0px"><flowRegion
         id="flowRegion1186"><rect
           id="rect1188"
           width="289.91379"
           height="68.690376"
           x="437.39606"
           y="592.18958" /></flowRegion><flowPara
         id="flowPara1190" /></flowRoot>    <flowRoot
       xml:space="preserve"
       id="flowRoot837"
       style="font-style:normal;font-variant:normal;font-weight:normal;font-stretch:normal;font-size:64px;line-height:1.25;font-family:'Bauhaus 93';-inkscape-font-specification:'Bauhaus 93, ';letter-spacing:0px;word-spacing:0px;fill:#005400;fill-opacity:1;stroke:none;"
       transform="matrix(0.26458333,0,0,0.26458333,2.6726954,-16.303441)"><flowRegion
         id="flowRegion839"
         style="font-style:normal;font-variant:normal;font-weight:normal;font-stretch:normal;font-size:64px;font-family:'Bauhaus 93';-inkscape-font-specification:'Bauhaus 93, ';fill:#005400;fill-opacity:1;"><rect
           id="rect841"
           width="334.3605"
           height="72.73098"
           x="412.14224"
           y="605.32159"
           style="font-style:normal;font-variant:normal;font-weight:normal;font-stretch:normal;font-size:64px;font-family:'Bauhaus 93';-inkscape-font-specification:'Bauhaus 93, ';fill:#005400;fill-opacity:1;" /></flowRegion><flowPara
         id="flowPara843">Access</flowPara></flowRoot>    <flowRoot
       xml:space="preserve"
       id="flowRoot845"
       style="font-style:normal;font-weight:normal;font-size:40px;line-height:1.25;font-family:sans-serif;letter-spacing:0px;word-spacing:0px;fill:#333333;fill-opacity:1;stroke:none"
       transform="matrix(0.40540507,0,0,0.4364714,67.992949,-78.26851)"><flowRegion
         id="flowRegion847"
         style="fill:#333333"><rect
           id="rect849"
           width="237.38585"
           height="56.568542"
           x="142.4315"
           y="537.64136"
           style="fill:#333333" /></flowRegion><flowPara
         id="flowPara851"
         style="font-style:normal;font-variant:normal;font-weight:normal;font-stretch:normal;font-size:40.25501251px;font-family:'Bauhaus 93';-inkscape-font-specification:'Bauhaus 93, ';fill:#333333">Control</flowPara></flowRoot>  </g>
</svg>
